<?xml version="1.0" standalone="no"?>
<!DOCTYPE svg PUBLIC "-//W3C//DTD SVG 20010904//EN"
 "http://www.w3.org/TR/2001/REC-SVG-20010904/DTD/svg10.dtd">
<svg version="1.0" xmlns="http://www.w3.org/2000/svg"
 width="6000.000000pt" height="6000.000000pt" viewBox="0 0 6000.000000 6000.000000"
 preserveAspectRatio="xMidYMid meet">
<metadata>
Created by potrace 1.13, written by Peter Selinger 2001-2015
</metadata>
<g transform="translate(0.000000,6000.000000) scale(0.100000,-0.100000)"
fill="rgba(255,255,255,0.45)" stroke="none">
<path d="M29905 57448 c-85 -32 -143 -87 -177 -165 l-23 -53 -220 -1 c-121 0
-233 -2 -250 -4 -16 -1 -127 -5 -245 -9 -118 -4 -244 -9 -280 -11 -36 -2 -114
-7 -175 -10 -60 -3 -139 -7 -175 -10 -36 -2 -101 -7 -145 -10 -44 -2 -118 -7
-165 -10 -47 -3 -112 -8 -145 -11 -60 -5 -61 -4 -79 28 -57 99 -178 142 -299
106 -52 -15 -130 -90 -146 -141 -14 -40 0 -36 -201 -57 -58 -6 -116 -13 -130
-15 -14 -2 -56 -6 -95 -10 -38 -4 -77 -8 -85 -10 -8 -1 -42 -6 -75 -9 -212
-24 -306 -35 -380 -46 -33 -5 -80 -12 -105 -15 -25 -3 -106 -14 -180 -25 -74
-11 -155 -22 -180 -25 -86 -12 -116 -16 -205 -31 -49 -8 -97 -17 -106 -20 -11
-3 -26 12 -47 45 -142 229 -495 158 -538 -107 -6 -36 -9 -40 -43 -45 -39 -6
-131 -23 -171 -31 -47 -10 -75 -16 -105 -21 -144 -23 -855 -178 -1150 -250
-126 -31 -239 -58 -250 -61 -11 -2 -43 -9 -72 -15 -52 -12 -52 -12 -79 20 -43
51 -98 75 -179 75 -59 1 -77 -3 -117 -27 -54 -31 -103 -96 -113 -148 -4 -20
-10 -40 -13 -45 -4 -6 -61 -25 -127 -43 -285 -79 -739 -215 -1000 -301 -115
-38 -259 -85 -320 -104 -60 -20 -155 -51 -209 -70 l-100 -33 -19 38 c-89 180
-328 221 -468 80 -57 -57 -83 -121 -84 -206 0 -38 4 -80 8 -92 7 -19 2 -24
-50 -43 -157 -58 -381 -144 -408 -155 -16 -7 -41 -16 -55 -20 -14 -4 -29 -11
-35 -15 -5 -4 -37 -17 -70 -30 -33 -12 -74 -28 -90 -35 -44 -20 -89 -38 -100
-41 -11 -3 -310 -127 -360 -149 -16 -8 -129 -57 -250 -110 -121 -53 -246 -108
-278 -122 l-57 -26 -50 27 c-96 52 -203 44 -280 -21 -48 -41 -78 -96 -86 -156
l-6 -43 -242 -119 c-132 -65 -285 -140 -339 -166 -53 -26 -103 -51 -110 -57
-6 -5 -23 -13 -37 -17 -14 -4 -27 -11 -30 -14 -3 -4 -35 -21 -72 -39 -37 -18
-70 -37 -73 -42 -4 -6 -15 -10 -26 -10 -10 0 -19 -3 -19 -7 0 -5 -20 -17 -45
-28 -25 -11 -45 -23 -45 -28 0 -4 -4 -6 -8 -3 -5 3 -18 -2 -30 -10 -12 -8 -79
-44 -149 -81 -71 -36 -140 -74 -155 -84 -14 -11 -33 -19 -41 -19 -9 0 -17 -4
-19 -8 -1 -5 -42 -30 -91 -56 l-87 -48 -55 50 c-62 57 -126 83 -204 84 -197 1
-335 -191 -277 -385 16 -53 18 -49 -64 -94 -30 -17 -97 -56 -148 -87 -51 -31
-97 -56 -102 -56 -6 0 -10 -4 -10 -10 0 -5 -7 -10 -15 -10 -8 0 -15 -4 -15
-10 0 -5 -4 -10 -10 -10 -13 0 -114 -62 -118 -72 -2 -4 -8 -8 -14 -8 -6 0 -26
-11 -44 -25 -18 -14 -35 -25 -39 -25 -3 0 -32 -17 -63 -37 -75 -49 -87 -57
-147 -92 -27 -16 -55 -34 -60 -39 -6 -4 -32 -22 -59 -38 -60 -36 -68 -42 -210
-136 -64 -43 -121 -78 -126 -78 -4 0 -10 -4 -12 -8 -2 -5 -57 -44 -123 -88
-66 -43 -132 -87 -146 -96 -24 -17 -26 -17 -46 1 -131 122 -349 65 -398 -104
-17 -58 -14 -129 7 -169 13 -23 21 -16 -257 -218 -115 -83 -211 -155 -213
-160 -2 -4 -10 -8 -18 -8 -8 0 -14 -4 -14 -10 0 -5 -6 -10 -14 -10 -8 0 -16
-4 -18 -8 -2 -4 -21 -21 -43 -37 -22 -17 -46 -36 -55 -42 -8 -7 -62 -48 -120
-92 -58 -44 -113 -86 -123 -95 -9 -9 -21 -16 -26 -16 -5 0 -11 -3 -13 -8 -1
-4 -50 -44 -108 -89 -58 -44 -115 -89 -127 -99 -11 -11 -31 -26 -43 -34 -13
-8 -30 -22 -39 -30 -9 -9 -60 -51 -114 -94 l-97 -79 -59 27 c-166 74 -339 5
-400 -161 -23 -63 -25 -126 -7 -188 l15 -50 -27 -23 c-15 -13 -38 -33 -52 -45
-14 -12 -41 -35 -60 -51 -40 -32 -160 -138 -202 -177 -15 -14 -53 -47 -85 -75
-32 -27 -70 -60 -84 -74 -15 -14 -51 -45 -79 -70 -76 -66 -97 -86 -176 -159
-227 -210 -295 -274 -348 -322 -32 -30 -106 -100 -164 -157 -85 -84 -109 -102
-126 -97 -46 14 -128 17 -170 5 -50 -14 -115 -69 -141 -119 -23 -45 -31 -139
-15 -185 l12 -37 -74 -75 c-40 -42 -138 -142 -218 -223 -80 -82 -180 -186
-222 -232 -42 -46 -98 -107 -125 -135 -26 -28 -67 -72 -89 -97 -23 -25 -44
-43 -48 -40 -3 4 -6 1 -6 -6 0 -7 -6 -18 -12 -25 -7 -7 -44 -48 -83 -91 -38
-43 -86 -96 -105 -116 -19 -21 -53 -59 -75 -84 -22 -26 -55 -62 -72 -81 -18
-19 -33 -36 -33 -38 0 -2 -28 -34 -62 -70 -63 -66 -63 -67 -96 -55 -48 17
-158 6 -209 -19 -140 -72 -195 -233 -132 -389 12 -30 11 -33 -47 -105 -32 -40
-63 -78 -69 -84 -5 -6 -21 -26 -35 -44 -14 -18 -32 -41 -41 -51 -8 -10 -24
-30 -35 -45 -10 -14 -26 -34 -34 -43 -9 -9 -33 -38 -55 -66 -22 -27 -42 -52
-45 -55 -3 -3 -18 -23 -35 -45 -16 -22 -35 -44 -42 -48 -7 -4 -13 -14 -13 -22
0 -7 -4 -15 -9 -17 -5 -1 -55 -64 -112 -138 -56 -74 -111 -147 -123 -162 -12
-14 -29 -37 -40 -50 -10 -12 -43 -57 -75 -98 -31 -41 -62 -81 -69 -88 -6 -7
-12 -16 -12 -20 0 -4 -13 -21 -28 -38 -15 -18 -34 -42 -42 -54 -26 -39 -140
-194 -163 -223 -19 -24 -31 -29 -77 -32 -64 -3 -81 -9 -137 -46 -79 -55 -117
-188 -79 -280 13 -33 13 -36 -29 -99 -24 -36 -47 -69 -52 -75 -22 -25 -203
-296 -203 -304 0 -5 -3 -11 -7 -13 -12 -5 -53 -66 -53 -78 0 -5 -4 -10 -9 -10
-5 0 -14 -13 -21 -30 -7 -16 -16 -30 -21 -30 -5 0 -9 -4 -9 -8 0 -5 -42 -72
-92 -149 -51 -77 -108 -164 -127 -194 -19 -30 -47 -73 -63 -97 -15 -24 -28
-45 -28 -48 0 -2 -20 -35 -43 -72 -44 -67 -135 -211 -149 -235 -4 -6 -32 -52
-61 -101 l-54 -90 -44 -1 c-115 -5 -216 -71 -261 -172 -32 -71 -30 -170 4
-245 22 -47 24 -59 14 -75 -7 -10 -29 -47 -48 -83 -19 -36 -45 -83 -58 -105
-104 -185 -209 -376 -221 -402 -8 -18 -17 -33 -21 -33 -5 0 -8 -9 -8 -19 0
-11 -3 -21 -7 -23 -5 -1 -28 -41 -52 -88 -25 -47 -71 -134 -103 -195 -31 -60
-126 -248 -210 -417 -84 -169 -157 -308 -163 -308 -23 -1 -112 -49 -139 -76
-64 -65 -85 -190 -45 -270 16 -30 15 -34 -28 -125 -63 -133 -91 -197 -238
-534 -47 -110 -93 -213 -100 -230 -29 -66 -284 -697 -325 -807 l-44 -118 -50
5 c-93 9 -192 -35 -251 -113 -70 -90 -81 -216 -28 -316 25 -46 39 -62 103
-115 20 -16 20 -18 -26 -146 -141 -401 -370 -1116 -419 -1305 -2 -8 -20 -69
-40 -135 -19 -66 -40 -137 -46 -157 -8 -32 -14 -38 -38 -38 -43 0 -113 -28
-152 -59 -73 -60 -104 -179 -70 -269 16 -43 70 -109 105 -129 16 -9 15 -20
-23 -169 -85 -340 -157 -639 -196 -827 -2 -10 -6 -26 -9 -35 -3 -9 -8 -33 -11
-52 -3 -19 -11 -55 -16 -80 -6 -25 -13 -56 -15 -70 -3 -14 -9 -41 -14 -60 -9
-35 -38 -172 -46 -220 -22 -125 -38 -196 -45 -204 -4 -5 -28 -10 -52 -11 -93
-7 -192 -79 -234 -172 -66 -143 -4 -317 136 -383 41 -19 50 -27 46 -44 -3 -12
-16 -91 -30 -176 -14 -85 -28 -166 -30 -180 -14 -77 -110 -755 -120 -845 -3
-27 -8 -68 -10 -90 -3 -22 -8 -65 -11 -95 -3 -30 -7 -64 -9 -75 -1 -11 -13
-118 -26 -238 l-24 -218 -37 -10 c-127 -34 -202 -181 -160 -313 18 -54 79
-122 124 -138 l30 -11 -6 -91 c-4 -50 -9 -116 -11 -146 -2 -30 -7 -102 -10
-160 -3 -58 -8 -125 -10 -150 -2 -25 -7 -97 -10 -160 -4 -63 -8 -140 -10 -170
-2 -30 -7 -152 -10 -270 -4 -118 -9 -231 -10 -250 -2 -19 -5 -133 -6 -252 l-1
-217 -37 -12 c-125 -41 -201 -150 -201 -289 0 -107 80 -222 180 -260 19 -7 39
-16 43 -20 5 -4 10 -97 12 -206 7 -349 15 -646 20 -744 3 -52 7 -149 10 -215
7 -141 33 -590 39 -655 4 -43 2 -46 -36 -70 -106 -66 -143 -207 -86 -319 27
-51 95 -109 139 -118 25 -5 29 -10 30 -42 0 -20 2 -43 3 -51 2 -8 6 -53 10
-100 4 -47 16 -159 26 -250 10 -91 22 -192 25 -225 4 -33 8 -71 10 -85 2 -14
9 -70 15 -125 6 -55 13 -116 16 -135 2 -19 20 -147 40 -285 49 -354 64 -456
70 -487 4 -20 1 -28 -16 -33 -38 -12 -108 -94 -130 -152 -59 -159 22 -327 185
-381 l60 -21 32 -168 c18 -92 35 -181 38 -198 3 -16 12 -61 20 -100 8 -38 16
-83 19 -100 11 -63 25 -132 40 -195 8 -36 17 -76 20 -90 2 -14 14 -70 26 -125
12 -55 24 -110 26 -123 7 -39 43 -188 111 -470 l66 -273 -25 -27 c-46 -48 -62
-92 -62 -167 -1 -59 3 -77 27 -117 32 -54 77 -92 133 -111 l39 -14 43 -154
c132 -470 279 -948 438 -1426 41 -122 74 -229 74 -236 0 -8 -7 -21 -16 -28 -9
-7 -27 -36 -41 -64 -75 -151 7 -351 164 -399 32 -10 64 -21 72 -25 7 -3 31
-54 52 -111 22 -58 43 -114 48 -125 6 -11 30 -75 55 -141 25 -67 50 -132 55
-145 5 -13 19 -49 31 -79 11 -30 25 -64 30 -75 5 -11 57 -137 115 -280 58
-143 117 -284 131 -313 13 -29 24 -54 24 -57 0 -2 16 -38 35 -79 19 -42 35
-78 35 -81 0 -2 13 -32 29 -67 16 -35 38 -83 49 -108 l19 -44 -29 -29 c-50
-50 -71 -104 -71 -178 1 -77 24 -130 79 -178 49 -43 76 -54 158 -60 46 -4 72
-11 77 -21 5 -8 27 -55 50 -105 49 -107 349 -711 417 -840 26 -49 81 -153 121
-230 71 -135 105 -198 159 -295 14 -25 37 -67 53 -95 15 -27 38 -70 52 -93
l25 -44 -43 -39 c-62 -57 -90 -126 -89 -219 1 -88 25 -149 82 -205 76 -74 202
-104 298 -71 32 11 50 13 52 6 2 -6 9 -16 15 -23 12 -13 21 -28 59 -96 24 -44
133 -225 170 -283 15 -24 41 -68 59 -98 18 -30 36 -57 39 -60 3 -3 21 -30 39
-60 18 -30 45 -75 61 -100 16 -25 37 -60 47 -77 9 -18 20 -33 25 -33 4 0 8 -5
8 -11 0 -12 207 -330 225 -344 6 -5 12 -14 13 -20 1 -5 51 -85 112 -177 l112
-167 -26 -34 c-99 -129 -57 -314 84 -376 64 -28 104 -31 167 -15 55 14 56 14
79 -11 13 -14 24 -29 24 -32 0 -7 63 -87 72 -91 5 -2 8 -8 8 -13 0 -11 60 -92
73 -97 4 -2 7 -8 7 -13 0 -10 91 -132 102 -137 5 -2 8 -8 8 -14 0 -11 219
-301 232 -306 4 -2 8 -10 8 -17 0 -7 3 -15 8 -17 4 -2 28 -30 53 -63 140 -185
192 -250 200 -253 5 -2 9 -10 9 -17 0 -7 4 -15 8 -17 6 -2 54 -59 142 -172 8
-10 25 -30 38 -45 13 -14 31 -38 40 -53 9 -16 20 -28 24 -28 4 0 12 -9 18 -19
8 -15 6 -28 -9 -53 -26 -45 -42 -130 -35 -181 28 -182 205 -295 379 -242 46
13 51 13 62 -2 13 -17 81 -99 98 -118 6 -6 39 -44 74 -85 35 -41 73 -83 84
-93 10 -9 17 -17 14 -17 -2 0 16 -22 42 -49 25 -27 69 -75 96 -106 28 -32 61
-69 75 -85 14 -15 42 -47 63 -71 36 -41 163 -179 252 -274 22 -23 87 -93 145
-155 58 -62 149 -158 203 -214 77 -79 97 -105 92 -121 -29 -94 -11 -185 50
-253 67 -74 161 -98 270 -67 16 4 61 -35 217 -187 108 -106 247 -240 309 -298
62 -58 145 -135 183 -171 39 -36 93 -86 120 -110 26 -24 63 -57 80 -74 18 -16
61 -55 97 -86 35 -31 76 -67 90 -80 25 -23 92 -82 203 -180 106 -94 99 -82 86
-131 -24 -86 13 -212 80 -278 75 -73 206 -99 312 -62 49 17 59 18 69 6 6 -8
64 -56 128 -107 64 -50 118 -94 121 -97 5 -5 87 -72 120 -97 8 -6 57 -45 107
-87 51 -42 97 -76 102 -76 5 0 11 -3 13 -8 4 -10 93 -82 102 -82 4 0 17 -11
30 -25 13 -14 28 -25 35 -25 6 0 11 -4 11 -10 0 -5 7 -10 15 -10 8 0 15 -4 15
-8 0 -4 37 -35 83 -69 45 -34 92 -69 104 -80 25 -21 148 -112 273 -202 47 -33
90 -64 95 -69 49 -39 123 -92 128 -92 4 0 16 -8 26 -17 11 -10 30 -26 44 -35
21 -15 25 -25 25 -75 0 -108 58 -200 150 -239 54 -23 143 -21 194 5 l43 21 55
-39 c99 -69 306 -208 316 -212 9 -4 251 -163 269 -177 6 -4 73 -47 150 -96 77
-48 163 -102 190 -120 28 -17 59 -37 70 -43 11 -7 106 -65 210 -129 105 -64
201 -124 213 -131 21 -13 23 -19 16 -51 -46 -207 99 -388 300 -377 65 3 148
40 193 85 l32 32 31 -22 c16 -12 30 -18 30 -14 0 3 7 1 15 -6 16 -13 21 -16
199 -115 171 -95 213 -117 351 -190 72 -38 171 -90 220 -117 50 -27 268 -137
485 -245 217 -108 396 -197 397 -197 1 -1 5 -22 8 -46 11 -87 60 -155 145
-200 14 -8 57 -14 95 -14 61 -1 77 3 125 30 l56 32 36 -18 c21 -10 77 -35 125
-55 91 -39 169 -74 238 -105 22 -10 68 -29 102 -44 35 -14 86 -37 115 -50 29
-13 143 -61 253 -105 110 -45 209 -86 220 -91 25 -12 233 -94 380 -150 61 -23
130 -50 154 -59 l45 -17 2 -65 c7 -169 136 -294 304 -292 95 1 205 62 247 137
7 14 19 12 93 -15 99 -36 451 -154 695 -233 235 -76 811 -248 1019 -304 59
-16 70 -22 73 -43 5 -35 39 -100 68 -132 46 -49 102 -71 180 -71 79 0 118 15
175 70 l36 34 59 -15 c243 -60 577 -140 674 -161 360 -78 635 -136 781 -164
91 -18 172 -33 182 -35 9 -2 36 -6 60 -10 59 -9 62 -11 82 -75 54 -167 216
-248 387 -193 52 17 137 88 164 137 10 18 15 18 165 -7 136 -23 210 -34 350
-52 19 -2 130 -18 245 -34 116 -16 235 -32 265 -36 94 -10 154 -16 180 -20 14
-2 70 -9 125 -15 55 -6 114 -13 130 -15 17 -2 80 -9 140 -15 61 -6 126 -13
145 -15 19 -2 51 -4 71 -5 33 0 38 -4 65 -57 88 -173 318 -192 427 -36 l32 45
130 -6 c72 -4 153 -9 180 -11 139 -13 524 -32 800 -41 116 -4 217 -8 225 -10
8 -1 130 -3 270 -3 l256 -1 14 -37 c31 -87 96 -149 188 -178 64 -21 160 -16
217 11 57 26 129 102 150 157 l18 47 211 1 c116 0 218 2 226 3 8 2 119 6 245
10 127 4 253 9 280 11 28 2 115 7 195 10 80 4 159 8 175 10 17 2 84 7 150 10
66 4 174 11 240 16 66 4 125 9 132 9 6 0 14 -8 17 -17 12 -34 75 -94 122 -114
124 -55 274 1 327 123 24 55 3 48 237 73 85 9 169 18 185 20 42 6 210 25 270
31 28 3 133 16 235 30 196 26 206 27 315 43 39 6 93 13 120 16 28 3 75 10 105
15 30 5 73 12 95 15 22 3 92 14 155 25 63 11 122 20 131 20 8 0 23 -16 32 -35
82 -172 318 -215 461 -84 44 39 84 117 92 179 l6 46 77 14 c42 7 81 14 86 16
6 1 84 16 175 34 340 65 1165 253 1426 324 l52 14 36 -44 c21 -24 55 -54 78
-65 52 -26 136 -32 192 -13 80 28 150 119 159 209 2 21 8 40 13 41 18 3 95 26
329 95 132 39 247 72 255 74 77 17 785 247 1063 345 l118 42 47 -51 c63 -67
126 -95 217 -95 59 0 81 5 129 29 96 49 156 142 161 254 l3 65 78 29 c44 16
88 33 99 38 11 5 52 20 90 35 123 45 250 97 259 105 6 5 16 9 24 9 8 0 28 7
45 14 18 8 136 57 262 109 127 52 255 106 285 120 97 44 144 64 205 90 33 14
94 41 135 59 41 19 95 43 120 53 25 11 61 27 80 36 l35 17 36 -33 c79 -71 193
-84 283 -31 79 46 116 111 121 211 1 38 7 62 16 66 8 4 60 30 117 58 57 28
109 54 115 58 7 4 14 8 17 8 14 0 426 209 432 219 4 6 8 7 8 2 0 -5 6 -4 13 1
6 6 66 39 132 73 375 197 394 206 570 307 22 12 54 29 70 37 17 8 62 33 100
56 117 67 138 76 143 61 7 -22 72 -81 111 -101 164 -83 363 1 416 176 17 56
13 146 -9 197 l-15 38 47 29 c26 16 52 34 59 40 7 5 16 10 20 10 8 0 139 82
160 100 7 5 14 10 17 10 13 0 781 491 796 509 3 4 17 12 33 18 15 7 27 17 27
23 0 5 5 10 10 10 12 0 94 52 98 63 2 4 8 7 13 7 6 0 15 5 22 11 7 5 66 47
132 92 l120 82 28 -32 c110 -126 326 -96 395 56 33 72 34 151 1 217 -18 39
-20 48 -8 54 8 5 57 40 109 78 52 39 118 86 145 107 160 116 195 143 268 201
29 22 97 74 152 115 55 40 102 76 105 80 3 3 32 25 65 50 33 24 65 49 70 55 6
6 42 35 80 65 39 30 81 64 95 75 14 12 88 72 165 133 77 62 148 118 157 126
14 11 19 11 34 -6 28 -31 115 -68 172 -73 156 -13 282 86 312 245 11 57 -1
132 -32 193 -11 22 -16 41 -10 45 8 5 93 79 156 136 13 11 56 49 96 85 41 36
85 76 99 89 15 13 50 44 80 70 30 25 74 65 98 88 25 24 46 43 47 43 2 0 26 21
53 48 27 26 101 94 163 152 144 133 269 252 430 410 203 199 183 182 216 169
42 -16 133 -13 177 5 51 22 112 88 130 141 17 48 15 141 -2 173 -10 18 2 33
97 130 59 61 145 152 192 203 47 51 97 104 112 119 15 15 41 44 58 65 16 21
30 35 30 31 0 -4 12 7 28 26 26 32 71 80 160 174 23 25 42 47 42 50 0 3 10 15
23 28 22 24 51 55 167 186 36 41 81 91 100 111 19 20 49 54 67 76 18 21 42 50
55 65 67 78 104 122 110 133 6 10 17 9 50 -2 133 -47 296 15 358 137 41 80 41
190 1 273 -12 24 -21 46 -21 49 0 6 128 170 168 213 15 17 40 48 56 70 17 22
33 42 36 45 3 3 17 21 30 40 13 19 27 37 31 40 6 5 38 46 128 165 25 33 48 62
51 65 3 3 17 21 30 40 13 19 27 37 30 40 3 3 21 25 39 50 19 25 39 50 45 55 6
6 16 18 21 27 6 9 62 87 125 173 63 87 127 175 143 197 15 21 32 45 37 51 6 7
35 46 65 87 29 41 59 80 64 87 6 7 11 17 11 23 0 8 21 9 69 4 91 -9 155 12
210 69 76 78 90 186 38 288 l-27 50 127 192 c70 106 131 194 135 195 4 2 6 8
2 13 -3 5 0 9 6 9 6 0 8 5 5 10 -3 6 -2 10 4 10 6 0 18 15 27 33 9 17 20 34
23 37 8 6 37 52 42 65 1 6 11 19 21 29 10 11 24 32 30 48 7 15 16 28 19 28 4
0 12 13 19 30 7 16 15 30 19 30 3 0 15 18 25 40 11 22 23 40 28 40 4 0 8 5 8
10 0 10 14 34 117 192 23 37 43 70 43 74 0 3 8 18 19 32 41 59 179 292 173
292 -4 0 -2 4 3 8 10 7 75 110 75 118 0 3 7 12 15 20 11 12 23 13 52 5 143
-35 297 51 343 193 30 91 6 210 -55 281 -19 22 -35 43 -35 47 0 8 68 137 80
153 5 6 27 46 50 90 23 44 57 107 75 140 18 33 58 110 90 170 32 61 75 143 97
183 50 93 351 697 408 819 l43 92 48 -6 c131 -16 255 86 265 217 5 69 -20 141
-66 190 -22 23 -40 44 -40 46 0 2 13 32 29 66 16 35 44 97 61 138 18 41 43 98
56 127 13 28 24 54 24 57 0 2 13 33 29 68 16 35 52 119 81 188 28 69 58 138
66 154 8 16 14 33 14 39 0 5 6 23 14 40 27 59 93 221 136 332 23 61 48 124 55
140 7 17 20 53 30 80 10 28 23 64 30 80 7 17 34 87 61 158 l48 127 52 17 c103
32 187 137 198 247 6 58 -17 149 -50 199 l-25 38 35 97 c18 53 77 232 131 397
53 165 100 311 105 325 5 14 18 57 29 95 11 39 49 167 85 285 56 188 160 557
173 615 3 13 21 27 48 39 48 19 100 71 121 121 32 78 19 184 -31 244 l-25 29
59 244 c60 244 79 323 87 367 3 12 11 51 19 85 8 33 16 72 19 86 2 14 16 79
31 145 26 114 78 366 89 430 3 17 8 41 11 55 7 35 25 130 31 160 2 14 11 59
19 100 8 41 17 89 20 105 13 79 19 87 73 107 103 38 183 152 183 260 0 114
-30 175 -124 255 -15 12 -25 28 -22 35 3 11 25 151 50 333 2 17 15 111 29 210
14 99 37 277 51 395 14 118 27 231 30 250 2 19 7 64 10 100 3 36 8 76 10 90 3
14 9 75 15 135 25 271 18 241 59 250 16 3 47 22 69 41 125 107 112 303 -26
390 l-43 27 6 71 c9 123 14 198 21 316 3 63 7 125 9 138 2 13 7 110 10 215 4
106 8 210 10 232 2 22 7 175 10 340 3 165 8 365 10 445 l3 145 49 50 c114 118
111 296 -7 413 l-47 47 -7 345 c-4 190 -9 368 -11 395 -2 28 -6 127 -10 220
-3 94 -7 190 -10 215 -2 25 -6 92 -10 150 -9 166 -16 278 -24 378 l-7 93 42
24 c173 102 148 375 -41 438 -46 15 -36 -22 -70 287 -19 180 -82 709 -90 760
-12 79 -44 308 -50 355 -13 102 -48 332 -65 420 -9 51 -15 84 -26 167 -6 44
-4 49 24 73 17 14 43 51 58 82 73 147 15 319 -131 393 -28 14 -51 25 -52 26
-2 0 -28 124 -58 275 -31 151 -58 283 -60 294 -3 11 -19 83 -35 160 -17 77
-38 172 -47 210 -28 128 -185 769 -204 836 -21 74 -24 105 -9 114 23 14 52 90
55 144 5 100 -50 192 -138 231 l-44 20 -53 177 c-29 98 -59 198 -66 223 -29
105 -92 306 -190 610 -104 319 -119 365 -224 662 l-52 146 22 24 c43 44 73
125 73 197 1 145 -99 264 -244 289 l-43 7 -34 90 c-75 199 -306 768 -355 875
-14 30 -48 109 -77 175 -28 66 -60 138 -70 160 -10 22 -45 101 -78 175 -33 74
-74 165 -91 201 l-31 67 26 50 c78 151 -12 336 -176 358 l-46 6 -143 287 c-78
157 -165 329 -193 381 -27 52 -75 142 -105 200 -31 58 -70 132 -88 165 -18 33
-52 96 -75 140 -24 44 -54 97 -67 117 -12 21 -23 39 -23 42 0 2 -43 79 -95
172 -53 92 -91 170 -86 173 4 3 21 31 37 61 25 47 29 66 28 135 0 66 -4 89
-26 130 -54 104 -159 165 -275 161 -58 -2 -61 -1 -81 31 -12 18 -22 37 -22 43
0 5 -4 10 -10 10 -5 0 -10 6 -10 14 0 7 -9 24 -19 37 -10 14 -27 38 -37 56
-27 44 -86 141 -104 169 -114 178 -165 260 -179 290 -5 11 -15 27 -23 35 -7 8
-47 66 -87 129 -41 63 -78 117 -83 118 -4 2 -8 8 -8 13 0 12 -221 343 -232
347 -4 2 -8 8 -8 14 0 8 -43 71 -60 88 -3 3 -11 17 -19 31 -12 24 -11 31 15
75 25 42 29 59 29 124 0 85 -16 123 -72 176 -53 51 -109 68 -198 61 -71 -5
-75 -4 -95 21 -22 29 -116 158 -190 261 -25 34 -63 86 -85 115 -22 30 -49 66
-59 81 -11 14 -27 35 -36 45 -9 10 -25 31 -36 46 -10 14 -32 43 -49 64 -16 21
-37 48 -45 60 -8 13 -23 30 -32 39 -10 8 -18 21 -18 27 0 7 -3 14 -8 16 -4 2
-30 32 -57 68 -28 36 -53 67 -57 68 -5 2 -8 10 -8 17 0 8 -6 18 -13 22 -10 6
-88 102 -182 221 -5 7 -17 21 -25 30 -8 10 -37 46 -65 82 -27 35 -58 74 -69
85 -10 11 -36 44 -58 73 -22 28 -44 52 -49 52 -5 0 -9 5 -9 12 0 6 -7 19 -16
29 -15 16 -15 22 0 61 23 64 27 111 15 170 -23 112 -116 205 -225 228 -50 11
-122 8 -158 -6 -15 -6 -34 13 -186 187 -30 34 -70 78 -87 96 -18 19 -41 46
-52 59 -29 36 -154 174 -237 260 -39 41 -69 74 -67 74 2 0 -11 15 -29 33 -18
19 -83 87 -145 153 -62 66 -198 207 -302 314 -128 131 -189 200 -185 210 3 8
8 40 11 71 11 118 -56 220 -168 253 -61 19 -89 19 -144 2 l-40 -12 -87 85
c-76 77 -178 172 -387 366 -35 33 -79 74 -96 90 -124 116 -157 145 -166 145
-5 0 -7 5 -4 10 3 6 2 10 -4 10 -6 0 -23 12 -39 28 -15 15 -48 44 -73 65 -124
109 -176 155 -200 180 -15 15 -29 27 -32 27 -3 0 -33 27 -68 60 -35 33 -70 60
-76 60 -7 0 -13 4 -13 8 0 4 -31 34 -69 65 l-68 57 14 53 c54 202 -104 393
-309 374 -32 -3 -77 -15 -101 -26 -53 -25 -58 -26 -85 -3 -34 29 -55 45 -117
95 -33 26 -67 53 -75 61 -14 13 -95 78 -171 136 -18 14 -38 31 -45 38 -7 6
-17 12 -23 12 -6 0 -11 3 -11 8 0 4 -16 18 -35 31 -19 13 -43 31 -54 40 -53
45 -62 51 -70 51 -5 0 -11 4 -13 8 -3 8 -171 139 -242 189 -17 12 -65 47 -106
78 -41 30 -111 81 -155 112 -44 32 -85 62 -91 68 -6 5 -37 28 -68 50 -142 100
-160 115 -164 143 -10 76 -69 159 -137 192 -44 22 -130 30 -171 16 -14 -4 -33
2 -60 21 -113 77 -455 303 -459 303 -3 0 -15 9 -27 20 -12 11 -34 26 -50 32
-15 7 -28 16 -28 19 0 4 -13 12 -30 19 -16 7 -30 16 -30 21 0 5 -7 9 -15 9 -8
0 -15 5 -15 10 0 6 -7 10 -15 10 -8 0 -15 5 -15 11 0 5 -4 8 -9 5 -5 -4 -11
-2 -13 2 -2 7 -103 72 -193 125 -11 7 -22 15 -25 18 -3 3 -9 8 -15 10 -5 2
-50 29 -98 59 -120 75 -136 85 -278 169 -68 40 -151 90 -184 111 -33 20 -68
39 -77 43 -11 4 -18 17 -18 31 0 43 -36 142 -66 181 -77 101 -229 139 -347 87
l-48 -21 -52 28 c-29 15 -68 37 -87 48 -75 43 -139 78 -230 126 -52 28 -140
74 -195 104 -55 29 -134 70 -175 90 -41 21 -77 41 -80 44 -3 3 -180 93 -395
199 -214 107 -392 195 -394 196 -2 2 -6 23 -8 46 -19 174 -225 275 -367 182
-49 -33 -49 -33 -108 -6 -123 56 -664 292 -723 315 -22 9 -123 50 -225 92
-212 87 -365 147 -599 237 l-165 63 -3 40 c-20 255 -320 370 -507 194 l-38
-36 -277 93 c-278 93 -644 211 -801 258 -333 99 -566 167 -629 183 -40 10 -75
23 -76 28 -19 74 -30 97 -61 133 -95 111 -257 121 -359 22 l-40 -39 -100 24
c-688 166 -857 204 -1320 296 -301 60 -290 58 -340 65 -56 9 -75 21 -75 47 0
34 -44 119 -79 153 -50 49 -117 78 -193 82 -125 8 -212 -41 -289 -160 -4 -6
-29 -5 -65 1 -92 16 -108 19 -294 45 -96 14 -192 28 -212 31 -166 23 -471 64
-533 70 -33 3 -94 10 -135 15 -135 17 -433 49 -524 56 l-88 7 -15 36 c-51 122
-181 187 -307 151 -52 -14 -119 -68 -142 -112 l-16 -31 -116 7 c-65 4 -178 11
-252 16 -74 5 -184 11 -245 15 -60 3 -141 8 -180 10 -38 2 -169 7 -290 11
-121 4 -227 8 -235 10 -8 1 -134 3 -280 3 l-265 1 -19 47 c-26 62 -88 129
-145 155 -54 25 -180 34 -226 16z m-198 -339 c50 -261 391 -332 542 -112 24
35 51 115 51 150 l0 23 233 -5 c127 -2 300 -7 382 -10 83 -3 213 -8 290 -10
185 -7 448 -21 550 -30 28 -2 106 -7 175 -11 69 -4 134 -8 145 -9 11 -1 30 -3
43 -4 18 -1 22 -7 22 -32 0 -85 51 -168 130 -213 146 -82 328 3 365 172 5 24
11 32 23 28 10 -2 58 -7 107 -11 50 -4 104 -8 120 -10 17 -2 73 -9 125 -15 52
-6 111 -13 130 -15 44 -5 299 -34 360 -41 25 -2 56 -6 70 -9 14 -2 45 -7 70
-10 25 -3 56 -8 70 -10 14 -2 43 -7 65 -9 22 -3 87 -12 145 -21 58 -8 128 -17
155 -21 28 -3 124 -18 215 -32 l165 -27 6 -71 c8 -87 34 -147 84 -197 54 -54
94 -73 194 -92 31 -6 118 13 161 35 69 36 150 141 150 196 0 21 16 25 62 14
24 -5 140 -28 258 -51 118 -22 287 -56 375 -76 88 -19 169 -37 180 -39 65 -12
445 -100 585 -134 91 -22 204 -50 252 -61 l86 -20 0 -67 c0 -77 16 -123 62
-176 61 -70 152 -97 249 -75 74 17 150 86 167 153 3 15 13 26 23 26 26 0 670
-188 916 -267 338 -109 466 -150 610 -200 88 -30 171 -58 185 -62 26 -8 26 -9
19 -106 -10 -124 60 -238 177 -292 49 -22 66 -25 133 -21 116 7 210 67 255
163 19 38 23 39 91 10 17 -7 57 -23 90 -35 33 -12 69 -26 80 -30 11 -5 81 -32
155 -60 74 -28 149 -58 165 -65 25 -11 120 -50 340 -140 49 -20 55 -22 180
-75 55 -24 123 -53 150 -65 28 -12 120 -53 205 -90 294 -127 302 -132 294
-157 -37 -116 -16 -211 64 -283 112 -104 308 -68 378 67 8 16 16 28 19 28 6 0
728 -360 820 -409 44 -24 130 -69 190 -101 143 -75 243 -128 280 -150 29 -16
97 -54 194 -107 76 -41 84 -48 67 -62 -7 -6 -23 -33 -34 -59 -69 -161 5 -342
163 -402 143 -53 311 15 374 152 l17 38 37 -26 c20 -13 37 -21 37 -17 0 4 4 3
8 -3 6 -8 150 -97 377 -231 17 -10 32 -20 35 -23 6 -6 32 -22 84 -52 21 -13
47 -28 57 -34 11 -6 28 -19 40 -30 12 -10 23 -18 25 -16 3 1 28 -12 57 -31
186 -120 269 -173 284 -182 10 -5 20 -12 23 -15 3 -3 70 -48 150 -100 80 -52
148 -99 152 -105 5 -6 8 -6 8 0 0 6 3 6 8 -1 4 -5 41 -32 82 -60 41 -27 83
-56 93 -65 16 -15 16 -17 -4 -35 -63 -57 -85 -196 -45 -277 69 -139 242 -181
366 -89 43 32 65 59 80 94 l12 27 111 -82 c62 -45 114 -85 115 -89 2 -5 8 -8
13 -8 5 0 49 -30 99 -67 49 -38 119 -88 154 -113 36 -25 65 -48 66 -52 0 -5 6
-8 14 -8 8 0 16 -4 18 -8 2 -5 37 -34 78 -65 41 -31 82 -62 90 -70 8 -7 31
-24 50 -37 19 -13 37 -27 40 -30 3 -3 43 -35 90 -70 46 -36 91 -70 100 -77 20
-15 180 -144 200 -160 8 -7 33 -26 55 -43 22 -18 61 -50 87 -71 l46 -40 -23
-42 c-93 -169 -10 -376 172 -430 94 -28 221 2 286 67 25 25 27 26 45 9 9 -10
48 -42 85 -72 37 -30 67 -58 67 -63 0 -4 5 -8 10 -8 6 0 21 -9 33 -21 12 -11
48 -44 81 -72 32 -29 71 -63 86 -77 15 -14 58 -52 95 -85 38 -33 81 -72 97
-87 15 -16 29 -28 32 -28 2 0 25 -19 50 -42 24 -24 86 -81 137 -128 108 -100
120 -111 275 -255 65 -60 158 -149 207 -198 l89 -87 -25 -33 c-14 -18 -31 -53
-37 -78 -47 -168 72 -322 243 -314 63 3 87 12 143 52 l31 23 107 -107 c58 -59
106 -107 106 -108 0 -1 53 -56 118 -122 64 -67 151 -158 192 -203 41 -45 95
-103 120 -129 25 -26 86 -92 135 -146 50 -54 104 -112 120 -130 17 -18 49 -55
72 -81 23 -27 58 -67 78 -89 19 -22 59 -67 88 -99 28 -33 67 -75 85 -94 17
-18 32 -36 32 -38 0 -3 -15 -21 -34 -40 -47 -49 -76 -114 -82 -187 -11 -117
55 -230 163 -283 102 -50 221 -35 333 43 14 9 22 14 18 9 -3 -4 1 -15 11 -25
14 -14 73 -86 151 -185 8 -11 25 -30 38 -43 12 -13 22 -26 22 -29 0 -5 84
-109 124 -154 7 -8 41 -51 75 -95 34 -44 70 -89 79 -100 18 -22 144 -187 254
-332 39 -51 75 -93 81 -93 6 0 7 -3 4 -7 -4 -3 8 -25 26 -47 18 -23 75 -99
127 -171 108 -149 109 -150 133 -176 9 -10 17 -22 17 -26 0 -5 9 -19 20 -33
19 -25 19 -25 -4 -55 -61 -79 -77 -177 -44 -255 50 -118 186 -178 308 -136 46
16 60 14 60 -9 0 -7 4 -15 9 -17 6 -2 174 -246 321 -468 64 -96 192 -295 213
-330 15 -25 54 -87 87 -139 33 -51 60 -97 60 -102 0 -5 5 -9 10 -9 6 0 10 -4
10 -10 0 -8 35 -66 57 -95 5 -5 14 -21 21 -35 7 -14 25 -45 42 -70 16 -25 40
-65 55 -89 l26 -45 -28 -22 c-15 -13 -31 -23 -35 -24 -13 0 -75 -107 -85 -146
-30 -122 19 -251 123 -322 78 -54 209 -60 297 -15 33 17 36 15 77 -65 14 -26
46 -84 72 -130 27 -46 48 -88 48 -93 0 -5 3 -9 8 -9 4 0 13 -14 20 -30 8 -17
36 -69 63 -116 27 -47 49 -88 49 -92 0 -5 6 -14 13 -20 6 -7 12 -16 12 -20 1
-6 50 -100 179 -342 26 -47 108 -209 184 -360 75 -151 142 -278 147 -282 6 -4
7 -8 3 -8 -4 0 -1 -12 7 -27 13 -25 13 -27 -26 -46 -73 -36 -129 -133 -129
-222 0 -88 62 -178 148 -217 53 -24 148 -26 191 -4 16 9 33 16 36 16 3 0 26
-44 51 -97 47 -101 96 -209 137 -303 20 -46 95 -217 112 -255 7 -16 25 -56 39
-87 14 -31 26 -59 26 -62 0 -3 11 -29 24 -58 46 -101 336 -822 336 -834 0 -1
-24 -13 -52 -27 -231 -107 -237 -429 -10 -539 58 -27 156 -33 219 -12 25 9 47
13 50 11 9 -10 76 -202 200 -577 69 -206 129 -384 133 -395 5 -11 11 -29 13
-40 3 -11 14 -49 25 -85 19 -61 75 -247 143 -475 17 -55 37 -119 44 -143 11
-33 11 -44 2 -46 -7 -2 -30 -9 -52 -15 -52 -13 -119 -71 -148 -125 -33 -63
-30 -166 6 -229 49 -84 131 -128 229 -122 30 1 65 8 77 14 18 10 22 9 30 -11
13 -34 164 -646 220 -893 39 -169 140 -640 145 -679 4 -21 8 -41 10 -45 3 -3
7 -27 11 -51 4 -25 10 -64 14 -86 l8 -42 -47 -4 c-192 -19 -317 -245 -230
-419 62 -124 210 -195 334 -160 22 6 42 8 44 6 6 -5 77 -422 87 -505 3 -30 10
-82 15 -115 19 -121 79 -562 85 -620 4 -33 13 -114 21 -180 7 -66 17 -145 20
-175 3 -30 11 -100 18 -155 6 -55 12 -129 11 -165 0 -63 0 -64 -30 -70 -78
-17 -153 -88 -175 -166 -23 -83 1 -182 60 -245 27 -30 101 -62 151 -67 37 -3
49 -9 49 -21 0 -9 4 -74 10 -146 5 -71 12 -179 15 -240 3 -60 8 -130 10 -155
10 -115 29 -597 40 -1033 l4 -168 -32 7 c-137 30 -282 -43 -338 -170 -46 -104
-25 -233 50 -314 74 -80 181 -116 280 -93 l43 9 -6 -326 c-4 -180 -9 -361 -11
-402 -2 -41 -7 -156 -10 -255 -3 -99 -8 -214 -10 -255 -15 -224 -25 -398 -31
-500 -4 -63 -7 -116 -8 -116 0 -1 -23 -5 -50 -8 -120 -16 -207 -94 -223 -200
-3 -17 -5 -33 -6 -36 -5 -20 18 -102 38 -136 29 -50 104 -102 158 -111 l39 -6
-6 -86 c-7 -83 -31 -323 -42 -406 -2 -22 -7 -56 -9 -75 -8 -72 -26 -226 -31
-270 -5 -46 -22 -180 -30 -235 -2 -16 -22 -158 -44 -315 -23 -157 -43 -294
-45 -305 -2 -11 -4 -24 -4 -30 -1 -6 -36 -10 -84 -11 -132 -1 -214 -50 -269
-162 -58 -118 -37 -243 59 -338 43 -42 130 -84 173 -84 22 0 24 -10 11 -60 -6
-19 -12 -51 -15 -70 -8 -57 -74 -392 -112 -575 -20 -93 -37 -177 -39 -185 -19
-97 -108 -481 -155 -678 l-61 -249 -37 13 c-86 29 -199 -1 -260 -72 -87 -98
-83 -241 9 -333 37 -36 107 -71 144 -71 l22 0 -34 -128 c-19 -70 -41 -152 -49
-182 -86 -317 -441 -1440 -462 -1462 -4 -4 -32 2 -62 13 -68 26 -176 22 -236
-9 -131 -67 -193 -215 -149 -357 30 -95 130 -185 220 -198 17 -2 29 -8 28 -13
-3 -18 -244 -646 -268 -699 -7 -16 -25 -59 -39 -95 -15 -36 -31 -74 -36 -85
-5 -11 -25 -60 -45 -110 -20 -49 -40 -99 -45 -110 -44 -99 -90 -212 -90 -223
0 -6 -4 -12 -10 -12 -5 0 -10 -6 -10 -14 0 -7 -12 -40 -27 -72 -15 -33 -54
-122 -88 -199 l-60 -139 -70 1 c-105 2 -181 -42 -228 -132 -43 -83 -18 -218
52 -281 36 -32 37 -39 12 -91 -221 -449 -414 -834 -446 -893 -23 -41 -72 -133
-110 -205 -119 -228 -160 -302 -206 -380 -10 -16 -25 -44 -33 -61 -19 -43 -26
-45 -77 -30 -130 38 -276 -27 -339 -151 -21 -39 -25 -62 -25 -128 0 -96 22
-150 84 -212 37 -37 40 -43 26 -56 -8 -9 -15 -18 -15 -22 0 -10 -103 -180
-114 -187 -6 -4 -8 -8 -4 -8 4 0 -20 -43 -52 -95 -33 -52 -60 -97 -60 -100 0
-3 -5 -11 -11 -18 -5 -7 -60 -93 -121 -192 -62 -99 -117 -183 -122 -187 -6 -4
-8 -8 -4 -8 6 0 -71 -124 -122 -195 -46 -64 -210 -319 -210 -326 0 -4 -3 -9
-8 -11 -4 -2 -27 -34 -52 -73 -25 -38 -54 -80 -65 -93 -20 -22 -23 -22 -58 -7
-20 8 -61 15 -92 15 -134 0 -238 -105 -236 -240 1 -66 19 -116 61 -164 27 -31
29 -36 15 -49 -8 -9 -15 -19 -15 -24 0 -4 -10 -20 -23 -35 -12 -14 -29 -36
-37 -48 -8 -13 -32 -44 -52 -70 -20 -26 -34 -51 -31 -54 4 -3 2 -6 -4 -6 -6 0
-23 -19 -39 -43 -16 -23 -31 -44 -34 -47 -3 -3 -39 -51 -79 -108 -41 -57 -79
-109 -85 -115 -6 -7 -19 -25 -29 -40 -10 -16 -25 -36 -33 -45 -50 -58 -74 -91
-74 -101 0 -6 -4 -11 -8 -11 -5 0 -24 -21 -42 -48 -19 -26 -37 -49 -40 -52 -3
-3 -19 -23 -36 -45 -40 -55 -47 -63 -65 -83 -8 -9 -22 -28 -31 -42 -8 -14 -79
-104 -157 -200 -78 -96 -152 -188 -165 -204 -23 -28 -25 -29 -47 -14 -13 8
-48 23 -77 33 -137 45 -289 -21 -354 -154 -34 -69 -32 -177 4 -251 15 -31 37
-66 49 -78 23 -25 22 -28 -36 -88 -21 -22 -24 -26 -99 -118 -24 -30 -47 -52
-50 -49 -3 4 -6 1 -6 -5 0 -7 -8 -20 -17 -30 -10 -10 -47 -51 -83 -92 -36 -40
-74 -84 -85 -96 -11 -12 -45 -50 -75 -84 -30 -33 -66 -73 -78 -88 -24 -27
-180 -197 -237 -257 -16 -18 -70 -76 -120 -129 -216 -234 -343 -358 -352 -343
-29 52 -179 82 -252 51 -151 -63 -204 -269 -98 -382 l22 -24 -186 -181 c-102
-100 -236 -229 -298 -287 -62 -58 -135 -125 -161 -150 -167 -157 -252 -235
-360 -330 -41 -36 -84 -74 -96 -85 -12 -11 -46 -40 -74 -65 -28 -25 -68 -60
-88 -78 -20 -18 -61 -54 -90 -79 l-53 -46 -55 27 c-241 118 -492 -94 -413
-349 18 -57 18 -61 1 -73 -16 -12 -57 -44 -85 -67 -7 -5 -32 -26 -57 -46 -25
-20 -56 -46 -69 -58 -13 -11 -27 -21 -30 -21 -3 0 -25 -17 -48 -38 -23 -20
-56 -48 -74 -62 -18 -14 -37 -30 -43 -35 -6 -6 -29 -24 -51 -40 -21 -17 -47
-37 -56 -45 -20 -17 -9 -9 -169 -130 -69 -51 -127 -97 -130 -100 -3 -3 -21
-17 -40 -30 -19 -14 -44 -33 -55 -43 -11 -10 -32 -26 -47 -35 -16 -9 -28 -20
-28 -24 0 -4 -6 -8 -13 -8 -7 0 -19 -9 -27 -20 -8 -11 -18 -20 -22 -20 -5 0
-52 -33 -106 -73 -94 -71 -177 -131 -210 -152 -9 -5 -27 -20 -40 -32 l-25 -21
-41 21 c-63 33 -167 30 -229 -6 -79 -46 -129 -146 -120 -237 4 -40 2 -47 -24
-66 -51 -37 -226 -157 -323 -220 -52 -35 -100 -67 -105 -72 -6 -5 -15 -11 -21
-13 -5 -2 -95 -61 -199 -130 -105 -69 -262 -170 -350 -224 -88 -54 -162 -101
-165 -104 -3 -3 -17 -13 -32 -21 -64 -35 -223 -135 -226 -142 -2 -5 -12 -8
-23 -8 -10 0 -19 -3 -19 -7 0 -9 -57 -43 -71 -43 -6 0 -25 11 -43 25 -139 106
-356 56 -436 -101 -20 -40 -25 -65 -26 -137 -2 -82 -4 -90 -25 -101 -13 -7
-62 -34 -109 -61 -47 -27 -114 -64 -150 -83 -36 -19 -90 -49 -120 -67 -30 -18
-107 -59 -170 -92 -290 -152 -337 -177 -389 -206 -68 -37 -720 -362 -740 -368
-8 -3 -33 16 -57 42 -99 105 -262 100 -357 -11 -44 -51 -61 -113 -54 -190 l5
-60 -46 -21 c-26 -11 -119 -52 -207 -91 -88 -39 -176 -77 -195 -86 -19 -9 -37
-16 -40 -17 -3 0 -27 -11 -55 -24 -61 -28 -435 -184 -565 -235 -52 -21 -107
-45 -122 -53 -16 -8 -28 -11 -28 -7 0 3 -10 0 -22 -8 -13 -8 -63 -29 -113 -47
-86 -32 -115 -43 -160 -62 -11 -5 -50 -20 -86 -33 l-65 -24 -19 33 c-23 43
-70 87 -126 117 -64 33 -195 33 -258 -1 -105 -55 -166 -164 -159 -283 3 -64 2
-68 -22 -77 -59 -24 -347 -123 -490 -169 -85 -28 -234 -76 -330 -107 -96 -32
-188 -61 -205 -66 -34 -9 -167 -48 -370 -109 -77 -23 -186 -54 -242 -70 l-101
-28 -12 27 c-6 15 -29 46 -51 68 -113 117 -305 86 -386 -62 -9 -16 -19 -59
-22 -95 l-6 -64 -80 -22 c-177 -49 -589 -146 -1060 -249 -79 -17 -577 -117
-605 -121 -19 -3 -40 -7 -46 -9 -7 -2 -20 18 -30 43 -25 68 -107 144 -179 166
-109 35 -226 5 -302 -77 -46 -49 -83 -138 -83 -197 0 -22 -3 -40 -7 -41 -5 0
-15 -2 -23 -4 -8 -1 -73 -12 -145 -24 -71 -12 -141 -23 -155 -25 -22 -4 -122
-18 -215 -31 -16 -2 -145 -20 -285 -39 -140 -19 -280 -38 -310 -41 -30 -3 -71
-8 -90 -10 -53 -7 -109 -13 -175 -20 -33 -4 -71 -8 -85 -10 -14 -2 -72 -9
-130 -15 -58 -6 -126 -13 -153 -16 -34 -3 -48 -1 -51 8 -2 7 -9 33 -16 57 -16
58 -89 132 -149 150 -120 35 -227 -2 -293 -102 -24 -37 -46 -120 -40 -152 1
-6 -6 -11 -16 -11 -46 -2 -270 -16 -292 -19 -14 -2 -86 -7 -160 -10 -74 -4
-143 -9 -153 -11 -9 -1 -99 -6 -200 -9 -100 -3 -202 -8 -227 -10 -44 -4 -424
-15 -663 -19 -72 -1 -121 2 -124 8 -4 6 -8 26 -10 44 -9 83 -83 179 -170 219
-157 72 -343 -3 -403 -165 -11 -29 -20 -66 -20 -82 l0 -29 -172 4 c-409 10
-647 16 -708 20 -36 2 -137 7 -225 10 -88 4 -176 8 -195 10 -19 2 -87 6 -150
9 -114 6 -162 10 -311 21 l-76 6 -6 50 c-16 134 -112 221 -247 222 -131 1
-235 -92 -249 -225 -1 -4 -11 -5 -23 -3 -13 2 -57 6 -98 10 -68 5 -564 60
-635 69 -16 3 -57 7 -90 11 -64 7 -105 13 -145 20 -14 2 -47 7 -75 10 -27 3
-77 10 -110 15 -33 5 -78 11 -100 14 -192 26 -474 68 -530 81 -17 4 -20 13
-21 72 -3 259 -323 384 -507 199 -40 -40 -77 -108 -80 -146 -1 -11 -3 -20 -5
-20 -19 0 -587 115 -818 165 -160 36 -306 67 -324 70 -18 3 -36 8 -40 10 -4 2
-20 6 -36 9 -16 3 -101 23 -189 45 -88 22 -211 52 -272 67 l-113 27 0 68 c0
123 -64 212 -176 245 -123 36 -239 -18 -297 -138 l-22 -45 -60 18 c-33 10
-208 61 -390 114 -270 79 -646 197 -1005 315 -100 33 -370 129 -380 135 -6 4
-7 11 -4 17 9 15 6 104 -6 147 -24 91 -112 177 -205 202 -130 36 -251 -13
-345 -140 -15 -20 -15 -20 -80 5 -87 34 -112 45 -132 55 -10 5 -26 9 -36 9
-10 0 -22 4 -28 8 -5 5 -22 14 -39 20 -37 14 -373 149 -400 161 -11 5 -72 30
-135 56 -63 26 -164 68 -225 95 -167 73 -366 160 -405 177 -19 8 -68 30 -108
49 -66 31 -72 37 -66 57 45 139 -3 264 -124 323 -46 23 -152 23 -202 1 -43
-19 -109 -83 -116 -114 -5 -19 -11 -22 -28 -17 -11 3 -25 10 -30 15 -6 5 -18
9 -28 9 -10 0 -18 5 -18 10 0 6 -5 10 -10 10 -11 0 -594 289 -732 363 -90 48
-183 97 -343 182 -113 60 -211 113 -250 136 -16 10 -46 27 -65 37 -19 10 -68
37 -108 60 -41 23 -78 42 -83 42 -5 0 -9 5 -9 10 0 6 -7 10 -15 10 -12 0 -13
5 -4 27 19 50 17 135 -4 198 -67 199 -334 259 -484 109 l-31 -32 -64 39 c-35
21 -68 38 -75 39 -6 0 -13 4 -15 9 -1 5 -17 17 -34 27 -18 11 -58 34 -90 53
-33 19 -60 38 -62 43 -2 4 -8 8 -13 8 -12 0 -93 52 -97 63 -2 4 -8 7 -14 7 -5
0 -41 20 -79 45 -38 25 -74 45 -79 45 -6 0 -10 5 -10 10 0 6 -7 10 -15 10 -8
0 -15 5 -15 10 0 6 -5 10 -10 10 -6 0 -85 49 -177 110 -91 60 -170 110 -174
110 -5 0 -9 4 -9 8 0 5 -11 14 -25 20 -14 7 -31 16 -38 22 -26 22 -240 160
-248 160 -5 0 -9 5 -9 10 0 6 -8 14 -17 18 -10 4 -39 22 -65 41 l-47 34 21 40
c81 160 -33 356 -208 357 -72 0 -134 -24 -182 -71 l-41 -41 -88 63 c-48 35
-90 66 -93 70 -3 3 -52 39 -110 79 -58 41 -107 77 -110 80 -3 3 -21 17 -40 30
-43 30 -219 164 -240 183 -8 7 -31 24 -50 38 -19 13 -42 29 -50 36 -8 7 -60
48 -116 90 -134 103 -245 192 -344 274 -19 16 -62 50 -95 76 -33 26 -69 55
-79 63 -10 8 -27 23 -38 33 -10 9 -18 15 -18 12 0 -3 -8 3 -18 13 -10 9 -32
28 -48 41 l-31 24 27 41 c49 73 65 157 46 239 -15 64 -28 88 -74 139 -107 119
-307 121 -422 5 l-35 -35 -55 50 c-49 44 -134 120 -196 175 -12 10 -50 44 -85
75 -35 31 -75 66 -89 78 -13 12 -67 61 -120 110 -52 48 -108 100 -125 115
-159 147 -276 257 -369 348 -226 219 -295 288 -301 297 -3 6 5 25 18 42 98
133 40 326 -115 379 -81 27 -167 11 -244 -46 -19 -14 -22 -13 -38 2 -98 98
-256 267 -256 274 0 5 -7 9 -15 9 -8 0 -15 4 -15 10 0 5 -12 22 -27 38 -55 57
-160 169 -254 272 -100 109 -117 128 -184 205 -22 25 -56 63 -75 84 -19 21
-57 64 -85 95 -27 32 -66 75 -85 95 -19 21 -51 58 -72 82 -86 104 -104 125
-127 148 -16 16 -21 29 -15 37 5 7 22 31 38 54 55 77 70 184 37 270 -38 100
-102 158 -206 185 -72 18 -136 11 -207 -24 l-56 -29 -74 92 c-40 50 -80 100
-90 111 -24 28 -94 116 -158 200 -29 39 -56 72 -59 75 -4 3 -46 58 -95 123
-48 65 -93 123 -100 130 -6 7 -36 46 -66 87 -30 41 -60 82 -67 90 -7 8 -41 56
-77 105 -36 50 -69 95 -74 100 -4 6 -19 26 -32 45 -14 19 -45 62 -71 95 -25
33 -60 83 -79 110 -18 28 -38 53 -44 57 -6 4 4 33 24 74 28 54 34 78 33 123
-2 143 -109 243 -253 237 -36 -2 -72 -6 -80 -10 -11 -4 -23 6 -40 34 -14 22
-28 40 -32 40 -5 0 -8 6 -8 13 0 7 -9 23 -20 35 -11 12 -20 25 -20 30 0 4 -8
17 -18 28 -10 10 -21 26 -25 34 -10 22 -29 50 -59 91 -16 20 -28 40 -28 43 0
9 -43 70 -52 74 -5 2 -8 10 -8 18 0 8 -4 14 -10 14 -5 0 -10 5 -10 11 0 5 -20
38 -44 73 -61 87 -316 496 -316 506 0 5 -4 10 -8 12 -7 2 -33 42 -105 163 -7
11 -22 35 -35 52 -13 18 -20 33 -17 33 4 0 -3 12 -14 26 -12 15 -21 32 -21 40
0 7 -4 14 -8 16 -11 4 -102 162 -102 176 0 7 4 12 9 12 12 0 56 69 70 111 28
85 17 189 -27 258 -63 99 -200 154 -317 127 -31 -7 -31 -6 -104 126 -41 73
-78 135 -83 136 -4 2 -8 10 -8 18 0 8 -11 32 -25 54 -14 22 -22 40 -19 40 4 0
1 8 -7 18 -8 9 -27 40 -41 67 -14 28 -45 86 -68 130 -98 184 -342 662 -345
675 -1 3 -33 68 -71 145 -38 77 -86 177 -107 223 l-38 82 36 32 c102 89 112
255 20 350 -55 56 -98 73 -187 73 -77 0 -78 0 -92 30 -33 70 -56 124 -56 129
0 3 -15 38 -34 78 -19 40 -41 89 -49 108 -8 19 -30 71 -50 115 -19 44 -65 154
-102 245 -37 91 -74 181 -82 200 -8 19 -18 44 -23 55 -6 17 -33 83 -61 150 -4
11 -31 81 -59 155 -76 201 -111 293 -121 315 -4 11 -15 36 -22 56 l-15 36 55
18 c189 64 255 318 122 469 -79 90 -207 125 -317 87 -48 -17 -54 -17 -61 -2
-7 14 -73 212 -192 576 -16 50 -40 124 -54 165 -23 69 -142 466 -150 500 -2 8
-22 76 -44 150 -22 74 -53 186 -70 248 -27 103 -28 114 -13 118 158 50 234
181 188 322 -40 119 -170 187 -302 158 l-29 -7 -43 178 c-24 98 -46 189 -49
203 -3 14 -7 30 -9 35 -10 41 -37 155 -40 175 -3 14 -9 41 -14 60 -5 19 -18
78 -29 130 -11 52 -36 169 -56 260 -20 91 -43 199 -50 240 -8 41 -17 86 -20
100 -3 14 -8 41 -11 60 -4 19 -8 42 -9 50 -2 8 -13 65 -24 125 -12 61 -24 126
-27 145 -3 19 -8 38 -11 43 -2 4 5 7 16 7 32 0 123 45 159 79 18 17 46 59 62
93 23 52 28 75 26 129 -2 82 -40 164 -99 214 -55 47 -159 80 -225 70 -26 -4
-44 -4 -41 0 4 3 3 23 -2 43 -6 30 -61 404 -85 577 -3 22 -9 67 -14 100 -5 33
-18 141 -30 240 -11 99 -22 198 -25 220 -2 22 -7 63 -10 90 -3 28 -8 64 -10
80 -5 40 -23 222 -31 315 -3 41 -7 79 -8 84 0 5 17 15 40 21 89 27 138 68 173
145 42 92 22 189 -54 266 -51 52 -104 74 -174 74 -30 0 -31 1 -32 48 0 26 -2
58 -4 72 -1 14 -6 86 -10 160 -4 74 -8 142 -10 150 -2 8 -6 92 -10 185 -3 94
-8 190 -10 215 -18 230 -26 1015 -10 1015 67 4 154 44 200 93 66 70 97 194 72
280 -33 112 -117 187 -237 213 l-51 11 5 236 c3 131 8 278 11 327 3 50 7 162
10 250 8 213 49 879 61 976 6 46 6 47 50 53 131 18 224 132 212 263 -2 26 -13
65 -22 86 -25 51 -96 112 -150 127 -42 11 -44 14 -41 44 2 17 18 155 35 306
51 458 128 1014 193 1395 l32 190 58 7 c239 30 342 308 181 487 -25 28 -63 57
-89 67 -35 15 -43 23 -40 39 2 11 11 58 20 105 19 100 109 529 130 615 8 33
16 71 19 85 8 45 55 241 92 390 19 80 38 154 40 165 2 11 21 88 42 170 l38
150 60 6 c70 7 119 28 163 71 46 45 63 83 69 153 7 99 -49 198 -135 238 -29
13 -32 -3 58 300 97 325 113 380 176 572 30 94 56 175 57 180 2 6 6 17 9 25 3
8 29 87 57 175 28 88 55 169 60 180 14 32 102 288 107 312 5 20 11 22 72 22
77 0 116 10 175 45 76 44 124 124 133 220 10 107 -39 210 -127 271 -28 20 -38
31 -30 39 5 5 10 16 10 24 0 8 6 28 14 45 8 18 38 93 66 167 29 74 63 159 76
188 13 29 24 55 24 57 0 3 68 172 145 360 4 11 7 23 7 28 -1 4 2 7 8 7 5 0 10
7 10 15 0 8 4 23 10 33 5 9 35 76 66 147 31 72 64 146 72 165 9 19 16 37 17
40 0 3 8 21 17 40 55 122 68 151 68 154 0 2 27 61 60 131 59 125 61 127 83
112 36 -23 95 -39 146 -39 169 2 281 181 212 338 -27 60 -89 120 -141 135
l-39 12 147 296 c81 163 149 298 152 301 3 3 25 43 49 90 24 47 56 108 71 135
15 28 55 104 90 170 72 137 92 174 155 285 25 43 45 84 45 90 0 5 4 10 9 10 5
0 14 12 20 28 6 15 24 50 40 77 17 28 33 57 37 65 4 8 18 34 31 57 l24 41 61
-31 c145 -75 324 -17 392 127 67 142 25 294 -105 382 -50 33 -50 34 -6 101 15
24 27 45 27 48 0 5 73 122 111 177 11 15 19 30 19 33 0 4 10 21 23 38 12 18
27 41 34 52 37 63 168 271 173 275 4 3 15 21 26 40 10 19 22 37 25 40 3 3 14
20 24 38 11 17 23 32 28 32 4 0 6 4 2 9 -3 5 -1 12 4 16 13 7 71 93 71 104 0
4 9 16 20 26 11 10 20 24 20 32 0 7 5 13 10 13 6 0 10 4 10 10 0 5 20 38 45
73 25 36 45 69 45 75 0 6 3 12 8 14 4 2 32 39 61 83 30 44 58 82 63 83 4 2 8
8 8 13 0 10 63 102 94 136 17 20 21 21 36 8 55 -50 175 -62 253 -25 55 26 109
87 127 144 29 91 -9 212 -84 270 l-36 27 23 32 c12 18 30 39 40 48 9 9 17 19
17 23 0 4 5 12 10 19 9 10 66 87 215 292 11 15 25 32 31 39 5 6 36 45 67 86
130 174 246 324 272 354 6 6 44 54 85 106 90 113 109 138 132 162 10 10 16 18
13 18 -4 0 19 30 50 64 6 6 28 34 50 61 22 28 46 58 55 67 8 9 28 32 43 52
l28 35 37 -24 c115 -76 252 -73 357 7 73 56 117 160 109 255 -5 58 -55 165
-91 193 -28 22 -26 27 21 76 12 12 44 47 71 79 28 32 61 70 75 85 14 15 50 55
80 90 77 87 236 262 315 346 17 17 71 75 120 129 50 53 127 136 173 183 46 48
94 98 107 112 13 14 29 30 35 35 6 6 62 62 124 126 l113 115 32 -26 c89 -75
234 -66 319 19 46 47 64 86 69 156 5 63 -18 137 -55 178 -15 17 -9 25 105 135
66 64 164 158 218 207 53 50 114 106 135 125 88 82 239 220 285 261 70 62 124
110 153 137 14 12 50 44 80 70 30 26 71 62 91 80 20 19 53 48 75 65 21 18 43
37 50 42 6 6 40 35 76 65 36 30 67 58 68 63 6 12 16 8 51 -23 57 -48 118 -68
202 -66 112 3 197 56 250 156 20 38 24 60 24 135 0 80 -3 96 -27 139 l-28 48
27 21 c25 20 217 175 279 226 16 12 62 48 102 77 39 30 72 59 72 64 0 6 3 9 8
8 6 -3 75 44 92 62 3 3 70 54 150 115 80 60 151 115 158 122 7 7 16 13 20 13
4 0 20 12 37 26 16 14 44 34 62 45 18 11 33 25 33 30 0 5 5 9 10 9 6 0 97 63
202 140 181 132 193 139 213 125 73 -55 175 -69 249 -36 103 47 153 135 143
252 -6 71 -2 99 14 99 4 0 37 20 72 45 36 25 70 45 76 45 6 0 11 5 11 10 0 6
8 14 18 18 9 4 51 29 92 56 279 184 454 297 510 331 36 21 66 43 68 47 2 4 9
8 16 8 7 0 23 9 36 20 13 11 29 20 37 20 7 0 13 4 13 9 0 5 14 14 30 21 17 7
30 16 30 21 0 5 4 9 9 9 5 0 45 23 88 50 43 28 85 53 93 57 8 4 47 27 85 51
39 25 70 44 70 42 0 -2 20 9 45 25 25 16 68 41 95 56 l50 28 24 -25 c41 -42
95 -65 185 -78 71 -10 191 45 241 110 52 69 77 180 56 254 -7 23 -1 29 67 68
41 23 76 42 78 42 3 0 21 11 42 23 20 13 82 48 137 77 55 29 154 81 220 116
66 34 154 81 195 103 77 42 739 371 820 408 l45 21 23 -42 c73 -129 249 -161
365 -65 82 68 108 191 63 300 -7 16 4 22 229 119 145 63 162 70 245 108 36 16
76 33 90 37 14 4 34 14 45 21 11 8 27 14 37 14 10 0 18 4 18 8 0 5 6 9 13 9 9
1 519 206 602 243 11 5 121 47 245 93 l225 85 14 -22 c19 -31 98 -82 146 -95
179 -48 349 69 373 257 l7 55 210 71 c116 40 214 72 218 73 4 0 20 6 35 11
147 56 1231 382 1268 382 5 0 22 -25 38 -55 46 -90 128 -136 228 -131 84 4
150 47 203 131 15 23 20 49 20 108 l0 77 35 10 c31 8 271 66 310 75 8 2 71 17
140 34 253 61 877 195 1060 227 14 3 71 14 128 24 122 24 142 24 142 6 0 -24
38 -100 63 -126 45 -46 70 -63 126 -82 153 -54 324 34 371 190 11 37 19 83 17
103 -3 35 -2 37 32 42 20 3 95 14 166 26 72 11 148 22 170 25 22 3 90 12 150
21 61 8 128 18 150 21 22 3 83 11 135 19 52 7 140 19 195 25 55 6 116 13 135
15 55 7 380 44 435 50 28 3 74 8 102 11 40 5 54 3 57 -7 2 -8 9 -34 16 -58 16
-58 89 -132 149 -150 163 -48 311 48 330 215 3 30 11 54 16 53 11 -1 217 10
285 16 25 2 95 7 155 10 61 4 126 8 145 10 19 1 112 6 205 9 94 4 190 9 215
11 25 2 167 7 315 11 149 3 271 7 272 8 1 0 53 2 115 3 l114 1 11 -59z"/>
<path d="M29928 56539 c-201 -31 -330 -206 -355 -484 -9 -100 -9 -314 1 -380
37 -260 147 -417 326 -465 118 -32 292 -5 381 60 83 59 151 176 173 295 12 62
24 141 25 155 3 88 2 292 -2 315 -3 17 -8 50 -12 75 -22 157 -103 304 -203
370 -82 54 -213 77 -334 59z m147 -229 c88 -33 128 -171 129 -440 0 -315 -65
-464 -195 -446 -73 10 -109 45 -134 130 -24 77 -30 154 -29 346 1 189 17 285
56 348 38 62 107 87 173 62z"/>
<path d="M26000 56199 c-19 -4 -50 -11 -69 -14 -19 -3 -37 -7 -39 -10 -2 -2 4
-48 13 -102 10 -54 19 -107 20 -118 22 -141 110 -622 115 -628 4 -4 38 -3 76
3 60 9 73 15 104 48 33 35 147 163 191 213 l20 23 -28 24 c-15 13 -41 35 -56
48 l-28 25 -20 -23 c-11 -13 -41 -49 -67 -82 l-47 -58 -7 43 c-4 24 -10 62
-13 84 -3 22 -11 74 -19 115 -8 41 -17 93 -20 115 -4 23 -9 52 -11 65 -3 14
-12 63 -20 110 -24 129 -24 130 -43 129 -9 -1 -33 -5 -52 -10z"/>
<path d="M33852 56195 c-63 -19 -108 -53 -146 -110 -30 -47 -63 -117 -72 -157
-2 -10 -6 -27 -9 -39 -2 -11 -6 -28 -9 -37 -22 -76 -28 -246 -11 -317 24 -106
95 -187 186 -214 57 -17 168 -13 214 8 81 36 140 122 180 260 31 106 40 170
39 286 -1 147 -49 247 -143 295 -68 34 -164 44 -229 25z m153 -167 c14 -13 29
-37 34 -54 22 -77 -15 -324 -65 -429 -44 -96 -132 -112 -178 -34 -42 72 -4
376 61 479 39 62 101 78 148 38z"/>
<path d="M25515 56113 c-43 -8 -81 -16 -84 -18 -3 -4 -62 -239 -76 -305 -3
-14 -31 -131 -63 -260 -51 -208 -57 -241 -49 -285 5 -27 12 -54 16 -58 4 -4
28 -3 52 2 24 5 60 12 79 15 32 5 263 45 350 61 19 3 46 8 60 10 14 3 34 6 45
9 11 2 23 5 26 5 6 1 -17 136 -25 150 -3 4 -43 0 -90 -10 -47 -9 -102 -20
-123 -23 -21 -3 -49 -8 -63 -11 -13 -2 -42 -7 -65 -10 -22 -3 -48 -8 -57 -11
-22 -7 -23 7 -4 72 14 48 104 394 111 424 1 8 9 35 16 60 7 25 13 50 15 55 1
6 9 38 18 71 9 34 16 65 16 68 0 8 -8 7 -105 -11z"/>
<path d="M26687 56063 c-3 -2 -12 -4 -162 -29 -55 -9 -104 -20 -109 -24 -4 -5
-2 -40 5 -79 10 -57 15 -70 28 -67 9 3 50 10 91 17 41 7 77 13 80 14 3 1 28 5
55 9 77 11 77 12 63 93 -10 60 -15 71 -30 70 -11 -1 -20 -2 -21 -4z"/>
<path d="M34407 55730 c-198 -296 -229 -349 -238 -397 -6 -30 -9 -57 -6 -59 4
-4 60 -15 222 -44 142 -25 162 -28 210 -36 22 -3 71 -12 109 -20 38 -8 71 -13
72 -11 10 10 30 148 22 153 -8 5 -87 19 -318 58 -65 11 -90 18 -90 22 0 3 30
49 68 102 37 53 94 136 127 184 33 48 102 148 153 223 86 126 91 135 70 139
-25 6 -71 13 -133 22 l-41 6 -227 -342z"/>
<path d="M24721 55979 c-71 -25 -117 -63 -145 -122 -31 -63 -38 -99 -38 -197
0 -194 71 -409 161 -488 46 -41 103 -65 159 -67 130 -4 233 49 283 147 65 126
24 461 -75 615 -76 120 -205 162 -345 112z m146 -149 c41 -25 59 -61 89 -179
30 -117 42 -272 25 -324 -24 -72 -104 -91 -154 -39 -52 54 -96 216 -103 375
-5 108 10 151 58 172 43 19 47 18 85 -5z"/>
<path d="M35090 55984 c0 -5 -95 -553 -106 -609 -31 -163 -41 -241 -31 -247 6
-4 14 -5 17 -3 3 2 31 -2 62 -10 l56 -13 154 84 c84 46 157 85 162 87 11 4
-55 127 -69 127 -5 0 -47 -22 -92 -49 -46 -27 -83 -44 -83 -38 0 7 5 30 10 52
9 38 33 167 80 440 11 66 23 128 26 137 6 19 2 20 -100 38 -68 11 -86 12 -86
4z"/>
<path d="M35786 55713 c-7 -23 -13 -57 -21 -125 -10 -79 -13 -82 -76 -69 -30
6 -76 13 -104 17 -27 3 -53 8 -57 10 -6 4 -22 -70 -23 -110 0 -21 26 -31 99
-39 37 -4 83 -13 112 -22 7 -2 5 -34 -7 -102 -26 -139 -29 -128 46 -139 45 -7
65 -7 66 0 0 6 2 18 4 26 1 8 5 31 9 50 12 78 24 131 28 136 5 4 173 -21 209
-32 14 -4 19 8 28 59 14 78 14 74 -1 74 -7 0 -56 8 -108 18 -85 15 -116 28
-105 45 3 4 35 183 35 194 0 5 -42 16 -90 22 -31 5 -39 2 -44 -13z"/>
<path d="M21580 55124 c-36 -14 -69 -29 -73 -33 -7 -7 5 -48 33 -116 5 -11 20
-51 33 -90 14 -38 53 -146 87 -240 34 -93 78 -213 97 -265 19 -52 37 -98 41
-102 4 -4 38 5 76 20 l69 27 84 135 c46 74 88 143 93 152 9 14 1 23 -46 53
-31 20 -61 34 -67 32 -5 -1 -32 -41 -58 -87 -29 -50 -50 -78 -53 -69 -38 110
-149 419 -156 434 -5 11 -21 55 -36 98 -19 54 -31 77 -43 76 -9 0 -45 -12 -81
-25z"/>
<path d="M38463 55129 c-124 -16 -224 -135 -302 -361 -17 -49 -28 -88 -26 -88
2 0 0 -12 -5 -26 -16 -41 -14 -157 4 -218 51 -176 304 -250 444 -130 80 68
183 277 211 426 14 76 8 183 -13 233 -46 109 -183 181 -313 164z m124 -175
c48 -31 45 -130 -9 -284 -67 -191 -135 -278 -205 -264 -53 11 -77 45 -77 112
1 54 29 167 61 242 8 19 21 50 29 67 55 130 128 175 201 127z"/>
<path d="M22193 55076 c-78 -28 -144 -54 -147 -57 -7 -6 30 -119 43 -132 4 -4
74 16 155 45 143 52 163 65 138 94 -5 5 -15 28 -22 52 -7 24 -16 45 -19 46 -3
2 -70 -19 -148 -48z"/>
<path d="M21059 54943 c-108 -28 -190 -97 -219 -186 -41 -128 24 -308 136
-373 115 -68 298 -8 339 111 l12 38 13 -38 c25 -75 9 -171 -36 -220 -43 -47
-143 -97 -214 -108 -11 -2 -22 -6 -25 -8 -6 -6 31 -119 43 -131 11 -11 102 15
177 50 82 39 157 109 192 181 26 51 28 66 28 171 0 92 -5 130 -24 190 -80 259
-228 372 -422 323z m139 -172 c42 -29 76 -102 68 -144 -17 -86 -124 -137 -192
-92 -52 34 -84 163 -54 212 35 56 118 67 178 24z"/>
<path d="M38995 54907 c-87 -34 -147 -101 -182 -205 -51 -155 1 -279 139 -330
76 -27 126 -27 182 3 l47 25 -26 -48 c-47 -87 -95 -125 -173 -138 -50 -8 -130
9 -194 41 -27 14 -53 25 -57 25 -7 0 -51 -116 -51 -133 0 -4 21 -17 47 -29
145 -64 282 -73 388 -24 87 40 155 115 214 240 113 235 104 395 -30 510 -74
63 -224 94 -304 63z m184 -166 c36 -20 54 -67 49 -133 -6 -76 -42 -118 -110
-125 -110 -13 -169 74 -124 182 40 94 102 120 185 76z"/>
<path d="M20498 54739 c-49 -7 -130 -44 -167 -75 -93 -78 -107 -237 -39 -439
67 -199 175 -334 288 -361 125 -29 277 42 330 153 49 102 21 286 -71 479 -89
187 -198 264 -341 243z m95 -187 c56 -53 151 -293 160 -404 4 -48 1 -63 -16
-90 -38 -56 -104 -56 -155 0 -61 68 -152 316 -152 414 0 61 13 86 53 104 40
17 74 10 110 -24z"/>
<path d="M39616 54587 c-106 -291 -128 -351 -165 -454 -22 -60 -50 -136 -62
-170 -13 -35 -21 -64 -18 -67 2 -2 33 -15 69 -29 l66 -24 164 54 c91 30 168
58 173 62 10 10 -32 131 -46 131 -17 0 -161 -52 -176 -64 -12 -9 -13 -7 -8 9
6 22 154 419 167 450 18 43 60 168 58 170 -2 1 -42 15 -89 32 l-86 31 -47
-131z"/>
<path d="M40266 54235 c-43 -117 -41 -116 -121 -80 -33 14 -125 45 -135 45 -8
0 -45 -118 -39 -124 2 -2 49 -19 104 -39 63 -22 99 -40 99 -49 -1 -7 -18 -56
-37 -109 l-36 -97 60 -22 c34 -13 64 -19 68 -14 4 5 23 53 42 107 18 53 37 97
42 97 4 0 42 -13 85 -29 133 -51 126 -52 150 19 l21 61 -27 10 c-75 28 -168
61 -179 64 -7 3 -1 32 22 92 53 142 53 129 -7 149 -29 9 -58 19 -63 21 -6 2
-28 -44 -49 -102z"/>
<path d="M17993 53376 c-67 -39 -125 -75 -129 -79 -8 -7 5 -37 43 -99 l23 -37
140 80 c132 76 139 82 129 102 -27 53 -65 107 -74 106 -5 -1 -65 -33 -132 -73z"/>
<path d="M17390 53319 c-36 -21 -69 -40 -74 -42 -11 -4 421 -757 433 -757 13
0 118 60 128 73 14 18 135 328 130 333 -2 2 -32 15 -66 29 l-62 24 -25 -57
c-14 -31 -30 -76 -36 -100 l-11 -43 -89 158 c-210 369 -242 423 -253 422 -5 0
-39 -18 -75 -40z"/>
<path d="M42515 53318 c-101 -38 -202 -152 -289 -324 -119 -238 -86 -407 96
-500 71 -36 162 -38 229 -6 154 74 339 383 339 564 0 147 -121 266 -279 274
-36 2 -79 -1 -96 -8z m156 -164 c62 -32 60 -105 -5 -238 -26 -51 -68 -125 -96
-164 -81 -116 -142 -148 -203 -107 -55 36 -49 112 18 247 79 159 180 278 237
278 10 0 33 -7 49 -16z"/>
<path d="M17063 53125 c-150 -47 -284 -154 -315 -250 -56 -175 82 -385 253
-385 54 0 125 26 190 70 l55 37 33 -74 c19 -40 32 -75 30 -77 -2 -2 -22 -14
-44 -26 -129 -71 -215 -124 -215 -131 0 -5 14 -31 30 -57 17 -27 30 -54 30
-61 0 -6 5 -11 11 -11 7 0 103 52 215 116 l203 117 -18 36 c-10 20 -53 108
-96 196 -42 88 -79 162 -80 164 -2 1 -19 5 -38 6 -28 3 -46 -4 -89 -36 -137
-104 -224 -112 -276 -27 -40 64 -32 119 24 172 33 29 112 69 164 82 19 4 38 9
43 10 4 1 21 2 38 3 l30 1 -38 69 c-21 39 -45 72 -54 74 -9 2 -48 -6 -86 -18z"/>
<path d="M43095 53003 c-95 -22 -170 -82 -213 -172 -21 -43 -27 -71 -26 -121
0 -110 52 -182 175 -243 l67 -32 -46 -65 c-25 -36 -46 -66 -47 -68 -1 -1 -60
32 -131 73 -71 41 -133 75 -139 75 -16 0 -80 -129 -69 -138 8 -8 332 -195 380
-220 20 -11 28 -3 105 111 45 67 102 149 125 182 l43 61 -22 38 c-17 30 -33
42 -72 55 -89 31 -149 77 -172 131 -29 71 43 170 125 170 49 0 134 -50 206
-123 62 -63 70 -68 80 -51 6 10 24 40 39 67 l28 49 -26 34 c-49 64 -184 152
-266 174 -51 14 -116 20 -144 13z"/>
<path d="M16406 52753 c-104 -30 -190 -109 -214 -195 -10 -35 -9 -117 2 -163
24 -110 143 -315 229 -396 129 -122 285 -128 413 -16 85 75 108 169 72 302
-32 117 -134 290 -223 379 -80 81 -189 115 -279 89z m139 -206 c87 -90 191
-283 202 -376 4 -40 2 -51 -18 -74 -14 -17 -38 -30 -59 -33 -30 -5 -43 0 -80
28 -82 62 -218 300 -228 397 -4 46 -2 53 26 81 23 23 39 30 68 30 33 0 45 -7
89 -53z"/>
<path d="M43697 52688 c-16 -26 -198 -341 -233 -403 -12 -22 -59 -102 -103
-179 -45 -76 -81 -141 -81 -145 0 -10 139 -83 147 -78 5 3 35 8 68 11 33 4 67
9 75 11 14 4 38 8 143 22 26 3 49 9 51 12 2 3 -1 35 -8 71 l-11 65 -40 -3
c-22 -1 -68 -9 -102 -16 -35 -7 -63 -11 -63 -10 0 1 22 38 48 81 81 131 282
481 282 492 0 9 -134 91 -151 91 -5 0 -15 -10 -22 -22z"/>
<path d="M44221 52135 c-29 -52 -55 -95 -58 -95 -2 0 -47 25 -99 55 -53 30
-97 55 -99 55 -2 0 -17 -26 -34 -57 -29 -52 -30 -58 -14 -68 43 -26 130 -77
151 -87 12 -6 22 -15 22 -21 0 -5 -25 -52 -55 -105 l-54 -95 27 -14 c14 -8 41
-23 58 -34 l32 -20 51 88 c28 49 55 94 60 102 7 10 29 1 104 -43 52 -31 97
-56 100 -56 7 0 69 111 65 115 -2 2 -46 28 -100 59 l-96 57 54 92 c29 51 54
97 54 102 0 9 -97 65 -110 65 -3 0 -29 -43 -59 -95z"/>
<path d="M14098 50953 c-124 -105 -128 -109 -128 -120 1 -4 21 -30 45 -56 40
-43 47 -47 63 -35 45 32 222 183 222 189 0 10 -83 109 -91 109 -5 0 -54 -39
-111 -87z"/>
<path d="M13506 50785 c-37 -30 -68 -57 -69 -59 -2 -5 142 -182 178 -220 6 -6
44 -51 85 -101 107 -128 112 -134 142 -169 16 -17 54 -63 85 -103 32 -40 61
-72 65 -72 3 -1 31 19 61 44 55 44 62 55 70 105 3 14 17 85 32 158 14 74 25
135 23 137 -2 2 -16 6 -33 9 -16 3 -47 8 -67 12 -21 4 -38 3 -39 -2 0 -5 -2
-18 -5 -29 -2 -11 -10 -53 -17 -94 l-13 -74 -39 49 c-22 27 -53 65 -70 84 -16
20 -48 57 -70 84 -22 27 -48 58 -59 70 -10 11 -57 67 -104 124 -46 56 -86 102
-87 102 -1 0 -32 -25 -69 -55z"/>
<path d="M46490 50792 c-14 -1 -45 -10 -70 -19 -166 -60 -388 -333 -406 -501
-12 -110 49 -218 155 -276 125 -67 247 -36 388 101 157 152 244 311 237 436
-8 141 -167 276 -304 259z m118 -198 c41 -47 26 -109 -55 -223 -92 -128 -234
-252 -280 -245 -7 1 -20 2 -28 3 -8 0 -26 13 -41 28 -24 23 -26 32 -21 75 4
27 16 66 28 86 78 128 233 289 294 305 36 10 80 -3 103 -29z"/>
<path d="M13408 50472 c-1 -4 -43 -41 -93 -82 -49 -41 -101 -85 -115 -98 -51
-47 -54 -47 -110 21 -29 34 -56 63 -60 65 -4 2 -38 -22 -74 -53 l-66 -56 47
-57 c27 -31 51 -58 56 -60 17 -8 4 -33 -28 -54 -19 -13 -35 -28 -35 -33 0 -14
80 -105 92 -105 5 0 23 13 41 29 17 17 34 28 38 25 5 -2 85 -96 180 -209 l171
-204 64 52 64 52 -6 72 c-3 40 -7 85 -9 100 -3 31 -13 129 -21 208 -2 28 -6
70 -9 95 -3 25 -7 70 -10 100 -10 97 -15 112 -52 156 -33 41 -57 54 -65 36z
m-3 -267 c4 -33 8 -70 10 -83 2 -13 7 -53 11 -90 7 -72 8 -81 19 -127 5 -16 6
-28 3 -25 -3 3 -45 55 -94 115 -48 61 -94 116 -102 124 -11 12 -11 16 0 27 20
20 143 122 145 120 1 0 4 -28 8 -61z"/>
<path d="M46970 50408 c-14 -17 -38 -46 -55 -65 l-30 -34 -39 33 -39 32 -44
-49 c-40 -46 -54 -75 -35 -75 4 0 20 -12 35 -25 32 -28 33 -25 -38 -109 -22
-26 -48 -57 -58 -69 -83 -98 -110 -130 -164 -195 l-63 -73 64 -54 c41 -35 71
-53 83 -51 20 4 487 135 586 165 49 15 65 26 98 67 l38 49 -27 21 c-15 12 -37
30 -48 40 -12 11 -62 53 -112 94 -50 41 -91 78 -92 81 0 4 25 37 55 73 l55 67
-64 55 c-36 30 -68 54 -73 54 -4 0 -19 -14 -33 -32z m58 -408 l63 -53 -118
-34 c-65 -19 -148 -45 -185 -58 -38 -13 -68 -21 -68 -20 0 2 10 15 23 28 55
60 95 106 141 160 42 51 50 56 65 44 9 -7 44 -37 79 -67z"/>
<path d="M12681 50073 c-57 -14 -98 -39 -148 -88 -133 -134 -92 -322 121 -552
71 -76 155 -138 220 -161 55 -20 137 -17 190 7 57 25 132 94 158 144 66 130
-8 317 -201 507 -129 128 -232 171 -340 143z m97 -170 c65 -36 208 -194 266
-294 14 -26 28 -66 31 -89 3 -37 0 -47 -25 -71 -69 -69 -177 -7 -325 186 -103
136 -122 205 -69 259 32 31 74 34 122 9z"/>
<path d="M47522 49966 c-10 -14 -39 -49 -64 -78 -25 -29 -68 -80 -96 -113 -58
-70 -137 -165 -274 -326 -54 -64 -98 -120 -98 -125 1 -5 26 -29 56 -53 l55
-44 180 -5 179 -4 1 39 c0 21 2 51 3 66 1 16 -2 30 -5 33 -4 2 -51 5 -103 5
-53 0 -96 3 -96 7 0 4 20 28 43 53 82 88 377 441 377 451 0 6 -105 99 -127
111 -6 4 -20 -4 -31 -17z"/>
<path d="M47995 49388 c-11 -13 -41 -49 -68 -80 -26 -32 -52 -58 -57 -58 -6 0
-23 11 -38 24 -15 13 -52 45 -82 70 l-54 46 -38 -42 c-20 -24 -37 -48 -38 -54
0 -10 82 -85 141 -130 l28 -21 -75 -89 -75 -89 48 -42 48 -43 35 39 c19 21 54
60 76 86 31 35 45 45 56 39 14 -8 66 -51 137 -112 l26 -22 42 47 42 48 -32 30
c-18 17 -57 51 -87 76 l-55 46 72 88 72 89 -42 37 c-49 45 -56 46 -82 17z"/>
<path d="M10658 47777 c-8 -6 -37 -39 -64 -72 -27 -33 -55 -66 -62 -73 -7 -8
-24 -30 -39 -49 l-27 -35 29 -25 c17 -14 42 -36 56 -48 l27 -23 97 115 c53 63
98 120 101 127 4 10 -22 35 -92 88 -6 4 -17 2 -26 -5z"/>
<path d="M49763 47614 c-152 -39 -365 -210 -444 -357 -30 -55 -34 -71 -34
-137 0 -91 19 -134 87 -203 77 -77 151 -98 253 -72 105 28 242 119 347 230 98
105 131 170 131 265 1 80 -30 146 -96 207 -76 71 -151 91 -244 67z m128 -170
c43 -22 61 -70 47 -119 -21 -65 -208 -239 -319 -296 -76 -39 -131 -32 -162 20
-22 38 -21 58 4 105 52 98 267 274 362 296 18 5 33 8 35 9 2 1 17 -6 33 -15z"/>
<path d="M10035 47433 c-85 -101 -93 -75 62 -204 75 -63 150 -125 166 -139 17
-14 91 -76 166 -139 75 -62 150 -126 168 -142 l31 -28 51 62 51 62 1 80 c0 44
1 123 2 175 l2 95 -73 3 -74 3 4 -104 c3 -119 11 -117 -88 -30 -146 127 -418
353 -425 353 -3 0 -23 -21 -44 -47z"/>
<path d="M9815 47149 c-64 -41 -162 -142 -202 -210 -86 -144 -68 -285 48 -369
74 -53 144 -52 227 4 l50 33 -9 -31 c-18 -61 -21 -100 -9 -141 25 -91 112
-156 199 -151 132 9 284 171 325 344 13 57 13 62 -2 63 -10 0 -25 2 -35 4 -10
2 -37 5 -59 7 l-41 3 -16 -55 c-42 -144 -130 -214 -207 -164 -22 15 -56 64
-54 79 4 31 38 97 76 145 l46 59 -38 33 c-63 56 -72 60 -81 43 -17 -30 -118
-128 -143 -137 -50 -20 -70 -16 -111 21 -31 27 -42 45 -44 71 -6 73 82 184
199 250 l56 32 -59 49 c-32 27 -61 49 -63 49 -2 0 -26 -14 -53 -31z"/>
<path d="M50136 47135 c-44 -15 -100 -58 -130 -99 -30 -39 -28 -135 3 -195 12
-24 19 -41 14 -39 -104 52 -161 57 -233 21 -151 -75 -149 -250 5 -408 79 -81
203 -152 225 -129 8 9 40 114 40 133 0 6 -6 11 -14 11 -53 0 -169 99 -185 157
-23 81 72 152 146 110 27 -15 93 -76 121 -112 l21 -27 50 39 c28 21 50 44 51
51 0 8 -18 34 -39 58 -54 62 -84 129 -76 170 12 65 103 106 165 74 62 -31 159
-170 183 -261 l6 -21 28 20 c15 12 43 35 61 51 l33 30 -35 73 c-85 178 -244
309 -370 308 -17 -1 -48 -7 -70 -15z"/>
<path d="M50623 46543 c-71 -60 -222 -186 -336 -282 l-207 -173 51 -59 c28
-32 52 -59 54 -59 2 0 37 -7 77 -15 40 -9 89 -18 108 -21 19 -3 62 -12 95 -19
68 -16 69 -15 81 54 4 25 8 51 10 58 2 12 -8 17 -61 27 -67 14 -81 16 -113 18
l-34 2 24 21 c14 11 85 70 158 130 74 61 180 149 236 196 l102 86 -58 72 -59
71 -128 -107z"/>
<path d="M9383 46589 c-146 -27 -261 -207 -220 -347 48 -167 325 -400 510
-427 106 -16 216 44 277 149 88 155 17 317 -220 500 -135 104 -244 144 -347
125z m145 -205 c97 -62 198 -151 255 -227 47 -61 50 -111 11 -151 -50 -49
-124 -31 -248 63 -190 144 -259 249 -210 319 36 52 105 51 192 -4z"/>
<path d="M50742 45992 c-23 -20 -42 -41 -42 -45 0 -5 32 -45 70 -90 l70 -82
-22 -18 c-12 -11 -46 -39 -75 -64 -29 -25 -59 -50 -68 -57 -13 -10 -10 -18 28
-61 l44 -50 49 40 c27 22 65 54 84 72 19 18 38 33 41 33 4 0 39 -38 79 -85 77
-92 73 -91 134 -38 41 37 41 37 23 55 -37 38 -127 150 -127 158 0 4 4 10 9 12
5 2 31 22 58 44 26 23 60 52 76 65 l28 24 -38 47 c-21 26 -42 47 -46 48 -5 0
-45 -31 -90 -70 -45 -38 -84 -70 -87 -70 -3 1 -36 39 -74 85 -38 47 -72 85
-75 85 -3 0 -25 -17 -49 -38z"/>
<path d="M7777 44218 c-30 -51 -66 -113 -80 -139 l-27 -45 66 -38 c36 -21 67
-37 69 -35 2 2 36 60 75 129 39 69 76 130 81 136 5 6 -14 23 -56 47 -35 20
-66 37 -69 37 -3 0 -30 -42 -59 -92z"/>
<path d="M52440 44004 c-72 -19 -186 -73 -269 -128 -198 -132 -264 -286 -188
-436 82 -160 214 -200 414 -125 176 67 330 185 391 300 64 122 6 295 -125 372
-54 31 -140 38 -223 17z m178 -178 c5 -3 17 -21 26 -40 15 -31 15 -39 2 -69
-24 -58 -97 -116 -251 -198 -113 -60 -170 -75 -219 -59 -63 20 -79 89 -37 148
44 63 216 171 345 218 56 20 102 20 134 0z"/>
<path d="M7293 43888 c-5 -7 -26 -43 -46 -80 l-37 -66 148 -85 c81 -47 250
-144 375 -216 126 -72 231 -131 235 -131 11 0 77 123 75 140 -2 26 -20 150
-48 330 -2 16 -35 16 -105 1 -29 -6 -35 -11 -34 -32 1 -43 15 -132 25 -156 5
-13 6 -23 4 -23 -3 0 -33 17 -67 38 -96 59 -481 280 -499 287 -9 3 -20 0 -26
-7z"/>
<path d="M7050 43468 c-36 -62 -77 -132 -91 -157 -14 -26 -52 -90 -83 -143
-31 -54 -56 -102 -56 -107 0 -11 122 -81 131 -75 4 2 46 73 95 156 48 84 89
155 91 157 5 7 12 -3 16 -29 18 -94 70 -288 93 -344 53 -134 166 -214 286
-202 141 15 270 199 262 376 -5 115 -1 111 -89 96 l-70 -11 -1 -81 c-4 -187
-114 -254 -221 -134 -29 33 -54 98 -104 278 -83 299 -72 274 -128 305 -27 15
-53 27 -58 27 -5 0 -38 -50 -73 -112z"/>
<path d="M52900 43567 c-14 -7 -44 -25 -67 -40 l-43 -27 38 -63 c33 -53 70
-117 116 -202 6 -11 17 -28 25 -38 8 -9 12 -19 10 -21 -2 -2 -40 7 -84 21
-272 84 -393 97 -486 56 -99 -45 -143 -111 -142 -218 1 -133 90 -264 228 -333
79 -40 81 -39 103 25 11 32 23 65 26 74 5 11 -4 21 -35 35 -129 58 -192 167
-130 225 50 46 128 60 221 38 25 -6 52 -12 60 -14 8 -1 97 -24 197 -50 l182
-48 56 29 c30 16 55 33 55 38 0 9 -268 477 -292 508 -11 16 -16 16 -38 5z"/>
<path d="M6790 42908 c-109 -31 -202 -172 -195 -294 6 -96 79 -195 208 -281
209 -137 369 -175 498 -120 81 35 159 161 161 260 3 133 -117 265 -341 378
-127 63 -241 83 -331 57z m215 -207 c178 -86 295 -186 295 -251 0 -17 -12 -41
-30 -60 -29 -31 -33 -32 -85 -27 -60 6 -193 67 -293 136 -60 40 -131 112 -133
134 -4 40 6 65 33 91 28 26 36 28 81 23 27 -4 86 -24 132 -46z"/>
<path d="M53265 42862 c-27 -16 -185 -106 -350 -202 -165 -95 -310 -178 -322
-184 -27 -13 -24 -30 22 -102 32 -49 36 -52 156 -99 68 -26 143 -55 166 -65
l42 -18 26 65 c14 36 22 69 18 73 -7 6 -111 46 -173 67 -10 3 -2 11 25 25 49
26 504 286 527 302 15 11 12 19 -28 89 -25 42 -48 77 -52 77 -4 0 -29 -13 -57
-28z"/>
<path d="M53199 42247 l-57 -32 35 -60 c20 -33 46 -78 58 -100 l23 -39 -81
-48 c-44 -26 -83 -48 -87 -48 -4 0 -13 -6 -19 -14 -9 -10 -4 -26 20 -68 l32
-55 71 39 c39 22 85 49 102 59 l31 19 14 -27 c8 -16 33 -61 57 -101 l43 -72
58 32 58 32 -19 36 c-23 42 -53 94 -78 135 l-19 31 95 53 c51 29 96 56 98 60
6 9 -53 111 -64 111 -5 0 -51 -24 -102 -54 l-93 -53 -46 81 c-73 127 -64 121
-130 83z"/>
<path d="M5641 40036 c-29 -80 -53 -149 -52 -153 1 -11 130 -57 137 -50 9 8
104 276 104 290 0 7 -26 20 -58 31 -31 10 -62 20 -68 23 -6 2 -34 -59 -63
-141z"/>
<path d="M54544 39870 c-74 -11 -206 -56 -293 -100 -88 -44 -174 -122 -201
-182 -56 -123 10 -306 134 -371 153 -80 560 49 683 216 79 107 52 293 -57 385
-53 46 -164 67 -266 52z m161 -183 c26 -9 55 -57 55 -91 0 -16 -13 -39 -35
-61 -59 -62 -286 -152 -405 -162 -60 -5 -68 -3 -97 21 -38 32 -46 75 -22 115
30 50 99 89 244 140 139 48 200 57 260 38z"/>
<path d="M5875 39677 c-33 -11 -62 -21 -64 -23 -6 -5 20 -93 42 -142 10 -24
17 -46 15 -48 -3 -2 -58 16 -124 41 -65 24 -204 76 -309 114 -186 67 -190 68
-199 47 -10 -25 -56 -150 -56 -152 0 -4 124 -50 400 -149 162 -58 323 -117
358 -130 l63 -24 9 22 c5 12 18 44 28 71 l19 50 -55 165 c-30 91 -57 169 -61
172 -3 4 -33 -3 -66 -14z"/>
<path d="M54965 39200 c-200 -71 -729 -263 -733 -266 -2 -2 7 -35 20 -74 l23
-71 150 -91 c83 -50 153 -92 157 -94 6 -4 78 106 78 119 0 6 -120 76 -160 93
-23 10 -21 12 45 34 100 33 558 200 563 205 5 5 -47 155 -57 167 -3 3 -42 -6
-86 -22z"/>
<path d="M5700 39092 c-8 -2 -38 -13 -67 -24 l-51 -19 29 -81 c17 -44 34 -89
39 -99 10 -17 7 -17 -37 2 -27 10 -169 64 -318 118 l-270 99 -31 -87 c-18 -47
-30 -88 -28 -90 10 -11 810 -297 816 -292 4 3 18 35 31 71 l25 65 -57 167
c-31 92 -58 169 -61 171 -3 2 -12 2 -20 -1z"/>
<path d="M4943 38628 c-86 -32 -146 -105 -171 -208 -30 -122 16 -224 138 -305
177 -117 418 -173 556 -129 109 34 177 135 181 268 2 94 -15 136 -83 202 -68
65 -245 148 -384 180 -66 15 -186 12 -237 -8z m177 -169 c136 -29 324 -118
357 -168 44 -68 -7 -150 -92 -146 -131 7 -364 96 -431 166 -56 58 -31 142 47
158 37 8 38 8 119 -10z"/>
<path d="M55000 38534 c-140 -51 -293 -107 -340 -124 -47 -18 -115 -43 -151
-56 l-66 -25 23 -57 c13 -31 24 -62 24 -69 0 -9 300 -203 315 -203 2 0 20 28
41 61 42 70 51 56 -72 125 l-73 40 37 13 c72 26 284 102 410 147 70 26 139 51
155 56 15 6 27 14 27 18 0 17 -62 170 -68 169 -4 -1 -122 -43 -262 -95z"/>
<path d="M55045 38020 c-11 -5 -32 -14 -47 -19 l-27 -10 33 -93 c19 -51 37
-100 40 -108 5 -13 -17 -24 -104 -55 -86 -31 -109 -43 -104 -55 3 -8 13 -35
22 -60 8 -25 16 -46 17 -48 1 -1 51 15 112 37 l109 39 39 -108 38 -108 54 19
c29 10 58 21 63 24 5 3 -8 53 -30 114 l-39 109 37 10 c20 6 69 23 109 37 l71
27 -13 37 c-7 20 -18 48 -23 62 l-11 27 -63 -23 c-35 -12 -83 -30 -107 -39
-24 -9 -45 -15 -46 -14 -1 2 -18 48 -37 103 -37 104 -48 116 -93 95z"/>
<path d="M4256 35763 c-9 -66 -16 -106 -31 -188 -8 -38 -11 -73 -7 -77 6 -6
82 -19 126 -22 13 -1 20 7 23 24 8 57 44 256 49 271 3 13 -8 19 -52 28 -97 19
-101 18 -108 -36z"/>
<path d="M55815 35502 c-35 -2 -67 -8 -175 -28 -143 -27 -269 -111 -310 -206
-46 -107 -5 -275 82 -338 70 -51 125 -63 262 -57 135 6 151 9 251 38 152 45
242 117 271 215 39 135 -26 293 -141 345 -56 25 -153 37 -240 31z m185 -199
c42 -22 63 -72 48 -115 -15 -41 -86 -81 -192 -104 -92 -22 -173 -31 -243 -30
-66 1 -87 5 -110 22 -62 47 -48 126 30 167 43 22 156 54 226 63 25 3 47 7 49
9 1 1 37 3 80 4 56 1 86 -3 112 -16z"/>
<path d="M4530 35349 c-30 -18 -57 -33 -58 -35 -4 -3 58 -120 86 -163 15 -22
15 -23 -3 -18 -33 10 -160 35 -350 67 -192 33 -201 34 -257 45 l-36 7 -11 -54
c-28 -141 -30 -133 35 -142 22 -4 51 -9 64 -11 14 -3 77 -14 140 -25 63 -11
124 -22 135 -24 11 -2 63 -11 115 -20 52 -9 104 -18 115 -20 57 -10 94 -16
130 -21 22 -4 54 -10 72 -15 l32 -8 11 56 c6 32 13 66 15 76 4 19 -160 336
-173 336 -4 0 -32 -14 -62 -31z"/>
<path d="M55855 34863 c-239 -35 -391 -126 -426 -255 -15 -56 -4 -158 23 -215
60 -128 188 -174 415 -147 230 26 401 122 437 245 21 70 20 114 -4 192 -49
157 -195 216 -445 180z m250 -187 c61 -26 80 -98 36 -145 -63 -68 -374 -132
-489 -102 -65 18 -93 75 -65 133 23 48 151 98 293 115 25 3 47 7 49 9 11 10
146 2 176 -10z"/>
<path d="M4045 34828 c-154 -20 -241 -100 -262 -239 -24 -151 40 -255 196
-320 41 -17 84 -33 95 -35 12 -2 55 -10 96 -18 43 -9 120 -14 180 -13 97 2
111 5 172 35 103 50 149 127 152 252 3 161 -95 256 -319 311 -44 11 -114 22
-155 25 -41 3 -79 7 -85 8 -5 1 -37 -1 -70 -6z m199 -193 c217 -47 276 -80
276 -156 0 -47 -41 -85 -104 -94 -40 -6 -160 0 -196 10 -8 2 -26 6 -40 9 -208
41 -286 105 -236 195 23 41 61 51 171 47 55 -3 113 -7 129 -11z"/>
<path d="M3921 34198 c-157 -23 -254 -132 -255 -288 -1 -157 94 -250 311 -306
173 -44 344 -43 438 3 165 82 203 333 67 455 -107 96 -378 162 -561 136z m134
-182 c110 -12 227 -41 283 -70 99 -51 92 -159 -11 -187 -108 -29 -404 32 -474
97 -48 46 -44 117 9 145 21 12 114 27 133 23 6 -2 33 -5 60 -8z"/>
<path d="M56307 34144 c-37 -7 -82 -15 -100 -18 -37 -7 -78 -14 -127 -22 -19
-3 -46 -8 -60 -10 -14 -3 -50 -9 -80 -15 -30 -5 -133 -23 -229 -40 -96 -16
-177 -32 -181 -34 -3 -2 -1 -36 6 -76 11 -64 16 -76 52 -108 83 -75 186 -166
210 -185 l25 -19 47 53 47 53 -28 26 c-43 41 -75 68 -104 87 -14 9 -24 18 -22
20 4 4 94 22 142 28 17 2 57 8 90 14 33 6 76 14 95 17 29 5 119 21 215 39 11
2 41 6 67 10 44 7 46 9 42 34 -10 68 -27 148 -33 153 -3 3 -37 0 -74 -7z"/>
<path d="M56065 33595 c-5 -2 -27 -6 -48 -10 -35 -6 -38 -8 -32 -33 8 -37 16
-83 20 -107 1 -11 6 -36 10 -56 l7 -37 -69 -11 c-37 -7 -81 -14 -98 -17 -54
-9 -66 -15 -61 -32 3 -9 8 -38 11 -64 7 -44 9 -47 34 -43 54 8 107 17 150 26
24 5 48 6 52 2 4 -4 10 -27 13 -51 3 -24 7 -46 10 -50 2 -4 7 -29 10 -56 8
-54 13 -69 25 -62 4 3 30 8 57 12 27 3 52 11 55 16 4 6 3 26 -2 47 -9 43 -16
80 -25 137 l-6 42 54 8 c29 4 58 8 63 9 6 0 32 5 58 9 l48 8 -6 42 c-3 22 -7
50 -9 61 -3 11 -5 23 -5 26 -1 3 -34 -1 -73 -8 -146 -26 -158 -27 -159 -12 0
8 -2 23 -5 34 -2 11 -6 38 -9 60 -14 91 -20 110 -40 112 -11 1 -24 0 -30 -2z"/>
<path d="M3660 30726 l0 -161 75 0 75 0 0 161 0 162 -75 0 -75 0 0 -162z"/>
<path d="M56155 30585 c-121 -26 -204 -81 -245 -161 -21 -41 -25 -63 -24 -135
1 -74 4 -92 30 -139 36 -66 88 -105 173 -130 89 -26 129 -31 242 -31 300 1
447 97 452 295 4 164 -81 262 -259 299 -87 18 -290 19 -369 2z m374 -191 c67
-19 101 -52 101 -97 0 -59 -40 -93 -131 -113 -46 -10 -247 -11 -310 -2 -110
17 -163 61 -152 127 8 57 68 90 177 98 39 3 72 6 73 7 10 8 199 -8 242 -20z"/>
<path d="M3870 30535 c-78 -25 -139 -91 -156 -168 -10 -44 -4 -127 10 -161 8
-20 32 -51 52 -70 l36 -33 -57 9 c-152 23 -210 101 -210 281 l0 97 -72 0 c-69
0 -73 -1 -74 -22 -18 -262 42 -400 206 -478 83 -39 161 -53 290 -54 128 0 197
17 271 66 87 59 128 143 125 260 -3 139 -67 232 -188 274 -46 16 -181 15 -233
-1z m195 -175 c44 -17 75 -58 75 -101 0 -21 -5 -48 -11 -61 -27 -61 -142 -97
-204 -64 -98 53 -92 203 10 229 35 9 103 7 130 -3z"/>
<path d="M56208 29959 c-37 -4 -77 -11 -90 -15 -13 -4 -29 -9 -36 -10 -26 -5
-108 -64 -135 -99 -40 -51 -59 -110 -60 -190 -1 -130 47 -214 150 -266 53 -27
74 -31 140 -32 111 -2 168 17 224 73 91 91 94 250 7 333 l-40 38 49 -6 c26 -3
73 -18 103 -33 46 -23 59 -36 82 -82 31 -60 42 -153 29 -225 l-8 -40 73 0 c40
0 75 3 79 7 13 12 13 143 1 214 -35 203 -168 311 -406 330 -36 3 -72 6 -80 7
-8 2 -45 0 -82 -4z m56 -203 c14 -9 33 -30 41 -46 48 -93 3 -175 -102 -184
-113 -9 -191 67 -161 155 27 78 153 121 222 75z"/>
<path d="M3700 29898 c-73 -9 -156 -41 -207 -78 -112 -82 -132 -287 -41 -402
76 -97 279 -141 523 -114 150 17 259 84 303 185 24 56 20 185 -8 244 -26 55
-76 102 -138 129 -92 41 -279 57 -432 36z m250 -182 c79 -7 85 -8 132 -28 42
-19 58 -43 58 -91 0 -27 -7 -41 -31 -61 -17 -14 -40 -28 -52 -31 -75 -18 -134
-22 -251 -20 -141 2 -200 18 -239 63 -53 59 -1 143 97 159 62 10 172 19 196
17 14 -2 54 -6 90 -8z"/>
<path d="M56302 29312 l-33 -3 1 -67 c1 -37 1 -88 1 -114 l-1 -46 -112 1 -113
1 -3 -67 -3 -66 117 -3 117 -3 -2 -112 c-2 -96 0 -113 13 -114 9 0 36 -1 61
-1 25 0 49 1 53 1 4 1 8 52 8 114 l0 112 115 3 116 3 -1 57 c-1 31 -4 62 -8
67 -4 6 -49 9 -109 8 -57 -1 -106 2 -109 7 -3 5 -5 57 -5 115 1 88 -1 105 -15
106 -8 0 -24 1 -35 2 -11 1 -35 1 -53 -1z"/>
<path d="M4049 26376 c-2 -2 -29 -7 -59 -11 -30 -4 -57 -8 -58 -10 -3 -3 15
-118 32 -210 2 -11 7 -39 11 -63 l7 -44 52 7 c69 10 88 14 93 19 5 5 -25 198
-42 276 -2 8 -4 21 -4 28 -1 11 -23 17 -32 8z"/>
<path d="M55771 26089 c-122 -40 -191 -140 -192 -283 -1 -68 35 -151 84 -192
68 -58 231 -115 370 -130 291 -32 440 67 441 291 0 62 -5 89 -22 121 -62 120
-255 201 -497 210 -102 4 -129 1 -184 -17z m254 -174 c170 -32 230 -53 270
-95 45 -47 34 -115 -25 -145 -90 -47 -446 18 -513 93 -26 29 -30 86 -8 114 29
35 77 48 166 43 44 -2 94 -7 110 -10z"/>
<path d="M4371 26056 c-48 -17 -103 -67 -131 -118 l-23 -45 -30 34 c-120 137
-329 112 -395 -47 -17 -41 -21 -67 -18 -138 7 -215 122 -351 282 -335 80 8
148 69 197 177 l18 40 22 -26 c51 -59 95 -82 165 -84 100 -4 159 33 195 124
44 109 0 311 -83 380 -56 46 -131 61 -199 38z m110 -176 c49 -27 65 -121 26
-165 -40 -47 -109 -38 -159 20 -21 25 -22 48 -3 85 30 59 89 85 136 60z m-428
-39 c23 -1 107 -79 107 -100 0 -30 -47 -117 -75 -139 -32 -26 -81 -28 -113 -6
-50 35 -73 130 -46 192 14 33 62 63 93 57 9 -2 24 -4 34 -4z"/>
<path d="M55675 25485 c-5 -2 -22 -6 -37 -9 -91 -20 -168 -162 -168 -310 0
-127 62 -216 163 -235 26 -4 59 -6 74 -4 40 6 108 42 134 69 28 30 35 30 43 1
11 -44 69 -118 112 -143 136 -80 284 -15 342 148 50 142 37 280 -35 359 -45
50 -90 69 -160 69 -68 0 -109 -19 -177 -81 l-52 -47 -18 44 c-19 46 -65 97
-106 119 -25 13 -97 25 -115 20z m88 -203 c21 -18 47 -69 47 -91 0 -21 -53
-78 -81 -86 -35 -11 -86 4 -103 30 -32 49 -11 139 38 164 26 12 75 4 99 -17z
m418 -39 c70 -42 57 -192 -20 -235 -59 -33 -121 -2 -163 81 l-28 54 26 30 c70
83 127 104 185 70z"/>
<path d="M4309 25424 c-287 -45 -423 -151 -422 -330 1 -126 63 -226 165 -266
60 -24 219 -33 303 -17 28 5 60 11 73 14 144 26 270 98 324 185 56 91 31 269
-48 344 -35 33 -87 61 -134 71 -57 13 -180 12 -261 -1z m263 -186 c53 -20 71
-74 43 -128 -38 -74 -292 -136 -496 -121 -9 0 -31 14 -48 30 -43 40 -43 91 0
132 48 45 187 83 374 102 40 4 94 -2 127 -15z"/>
<path d="M55799 24835 c-1 -3 -2 -8 -3 -12 -1 -5 -8 -40 -15 -80 -7 -39 -14
-80 -16 -90 -2 -10 -4 -24 -4 -32 -1 -9 -9 -11 -26 -7 -85 21 -199 36 -209 26
-5 -5 -7 -10 -4 -10 3 0 0 -25 -6 -55 l-13 -54 26 -5 c14 -3 53 -10 86 -16 91
-15 107 -19 112 -24 3 -3 0 -36 -6 -73 -7 -37 -14 -81 -17 -97 -3 -16 -7 -33
-10 -37 -5 -9 9 -19 33 -23 99 -19 103 -19 104 3 1 12 2 24 3 29 1 4 8 45 16
90 l14 84 45 -5 c26 -3 72 -11 104 -17 32 -6 63 -10 70 -7 6 2 16 31 22 64
l11 61 -90 16 c-50 10 -99 18 -108 20 -27 3 -29 10 -18 62 5 27 12 60 14 74 2
14 7 42 11 63 7 34 5 37 -16 38 -26 1 -49 4 -86 14 -13 3 -24 3 -24 0z"/>
<path d="M4900 21822 c-36 -14 -67 -26 -69 -28 -2 -2 16 -56 39 -121 23 -65
47 -133 53 -151 12 -36 8 -36 105 0 28 11 52 21 52 23 0 4 -111 299 -113 301
-1 0 -31 -10 -67 -24z"/>
<path d="M5490 21683 c-8 -3 -38 -14 -66 -25 l-51 -18 49 -133 c27 -72 60
-160 74 -195 13 -34 24 -65 24 -68 0 -5 -100 0 -210 11 -25 2 -81 7 -125 10
-44 3 -100 8 -125 10 -25 2 -81 7 -125 10 -44 3 -106 8 -137 11 -32 3 -58 2
-58 -2 0 -10 48 -143 59 -164 5 -8 23 -16 42 -16 19 -1 75 -4 124 -8 50 -4
133 -9 185 -11 52 -3 118 -7 145 -10 28 -2 102 -7 165 -11 63 -3 126 -7 140
-9 13 -1 50 6 81 17 55 18 57 20 49 46 -8 26 -47 136 -125 347 -20 55 -46 126
-57 158 -19 55 -26 62 -58 50z"/>
<path d="M54554 21502 c-86 -30 -135 -81 -169 -177 -39 -110 -14 -217 69 -293
157 -145 502 -235 641 -167 59 29 110 86 134 150 58 154 15 271 -132 366 -51
33 -188 94 -237 104 -8 2 -31 9 -50 15 -63 20 -199 21 -256 2z m278 -205 c191
-68 271 -130 262 -199 -6 -47 -43 -80 -95 -83 -107 -6 -388 101 -452 173 -35
39 -19 123 26 143 42 18 157 2 259 -34z"/>
<path d="M54280 21009 c0 -6 -45 -136 -101 -288 -55 -151 -101 -279 -102 -284
-2 -8 117 -57 138 -57 6 0 42 88 80 195 39 107 72 195 75 195 5 0 243 -230
447 -433 l112 -111 11 30 c57 148 59 153 46 166 -7 7 -91 87 -187 178 -95 91
-216 206 -268 255 -52 50 -103 98 -113 108 -11 10 -45 27 -75 38 -66 22 -63
22 -63 8z"/>
<path d="M5465 20973 c-33 -7 -73 -18 -90 -24 -16 -6 -39 -14 -50 -18 -71 -26
-184 -91 -229 -132 -109 -99 -127 -233 -50 -365 78 -136 236 -164 474 -84 165
56 301 151 343 242 36 76 25 183 -27 273 -66 112 -192 149 -371 108z m216
-173 c10 -6 26 -24 34 -40 45 -86 -39 -158 -273 -237 -117 -39 -193 -47 -234
-26 -28 13 -56 57 -52 81 1 6 2 19 3 26 4 49 148 131 321 182 81 24 170 30
201 14z"/>
<path d="M54406 20247 c-7 -18 -25 -66 -40 -108 l-27 -77 -97 35 c-53 20 -103
36 -110 37 -12 1 -52 -83 -52 -110 0 -7 47 -29 105 -49 58 -21 105 -40 105
-44 0 -3 -16 -48 -35 -99 -19 -51 -35 -98 -35 -105 0 -6 27 -21 60 -33 53 -19
60 -19 65 -5 4 9 18 48 32 86 14 39 29 80 34 92 l8 22 93 -33 c51 -19 100 -37
108 -40 12 -5 20 6 35 46 10 29 20 58 22 64 2 7 -40 27 -99 49 -57 21 -105 39
-107 41 -2 2 13 51 34 109 21 58 36 107 34 109 -2 1 -30 12 -62 23 l-59 21
-12 -31z"/>
<path d="M6655 17781 c-6 -5 -31 -20 -56 -33 l-46 -23 81 -142 81 -142 59 32
c32 18 60 38 63 45 3 7 -27 67 -66 134 -39 66 -71 125 -71 129 0 12 -33 11
-45 0z"/>
<path d="M7037 17574 c-177 -43 -342 -159 -400 -282 -25 -54 -29 -72 -25 -130
6 -111 78 -226 172 -274 88 -45 213 -29 311 39 64 46 95 84 116 145 40 120
-43 271 -168 303 l-47 12 57 21 c146 55 249 5 331 -158 l33 -67 62 34 c33 19
61 39 61 45 0 33 -81 160 -140 218 -55 55 -77 69 -133 88 -76 25 -145 27 -230
6z m-49 -290 c32 -21 62 -73 62 -107 0 -58 -56 -113 -141 -137 -63 -18 -139
42 -139 110 0 81 89 164 165 153 17 -3 40 -11 53 -19z"/>
<path d="M52660 17310 c-92 -17 -173 -89 -211 -189 -25 -67 -23 -145 6 -206
45 -96 224 -231 394 -299 94 -37 221 -42 282 -13 137 67 206 260 140 387 -41
78 -162 180 -291 245 -129 65 -235 90 -320 75z m126 -191 c77 -29 220 -111
276 -159 60 -52 81 -95 67 -142 -20 -74 -98 -82 -224 -24 -155 72 -296 180
-311 240 -7 27 17 80 43 95 29 17 88 13 149 -10z"/>
<path d="M7410 17054 c-85 -22 -235 -101 -315 -165 -78 -62 -110 -99 -145
-168 -65 -130 32 -341 175 -381 102 -29 253 11 408 106 227 140 306 292 233
446 -73 153 -189 206 -356 162z m162 -163 c4 -1 19 -13 33 -28 42 -46 31 -100
-32 -160 -88 -84 -329 -206 -390 -197 -7 1 -20 2 -28 3 -26 2 -65 52 -65 83 0
56 38 100 150 173 148 97 254 137 332 126z"/>
<path d="M52239 16757 c-123 -194 -116 -372 20 -515 110 -117 270 -205 394
-216 146 -12 272 78 323 233 49 150 -46 305 -225 368 -45 16 -149 10 -187 -9
-41 -22 -89 -73 -110 -117 -22 -45 -30 -130 -16 -170 6 -17 8 -31 5 -31 -17 0
-87 68 -109 106 -49 83 -34 178 44 293 35 51 38 59 23 68 -23 14 -111 63 -114
63 -1 0 -23 -33 -48 -73z m490 -322 c52 -26 88 -63 97 -101 9 -36 -31 -109
-67 -125 -62 -25 -167 1 -195 48 -36 60 -17 150 40 184 41 25 67 24 125 -6z"/>
<path d="M52263 16030 l-59 -99 -96 55 c-54 31 -102 53 -108 49 -11 -7 -64
-105 -58 -109 2 -2 45 -26 96 -55 50 -29 92 -56 92 -61 0 -8 -52 -103 -90
-166 l-19 -30 55 -32 c31 -18 60 -30 64 -27 5 3 30 44 57 91 26 48 53 88 59
91 6 2 53 -21 104 -51 51 -31 94 -55 95 -53 1 1 16 27 33 58 l32 57 -72 43
c-40 24 -85 49 -101 57 l-28 14 19 31 c11 18 36 60 56 95 21 34 36 67 34 72
-2 6 -27 24 -55 40 l-52 30 -58 -100z"/>
<path d="M9100 13807 c-14 -12 -38 -32 -53 -44 l-28 -22 78 -93 c43 -51 87
-105 98 -120 11 -15 25 -28 30 -28 6 0 34 21 63 46 l52 45 -101 120 c-55 65
-103 119 -107 119 -4 0 -18 -10 -32 -23z"/>
<path d="M9614 13721 c-77 -55 -144 -104 -149 -109 -6 -5 -23 -17 -39 -27 -25
-16 -28 -23 -23 -57 4 -30 16 -48 58 -86 67 -60 109 -126 109 -171 0 -66 -69
-131 -140 -131 -62 0 -166 113 -205 224 -10 28 -19 53 -21 55 -2 2 -30 -19
-63 -45 -66 -54 -66 -55 -24 -139 112 -219 305 -320 461 -241 110 56 173 143
177 242 3 69 -38 155 -105 220 l-49 48 71 47 71 47 99 -118 100 -119 53 42
c30 23 56 47 58 53 3 6 -38 62 -91 125 -54 63 -115 137 -137 164 -43 51 -65
75 -69 75 -2 0 -66 -45 -142 -99z"/>
<path d="M50176 13593 c-35 -10 -64 -29 -102 -68 -137 -137 -127 -286 31 -454
69 -73 178 -159 250 -198 144 -76 283 -61 374 43 54 61 74 108 79 182 6 92
-34 170 -147 283 -177 178 -347 252 -485 212z m119 -167 c100 -42 298 -214
335 -292 19 -38 20 -49 10 -79 -32 -96 -120 -87 -275 30 -139 104 -231 217
-222 272 12 72 76 101 152 69z"/>
<path d="M10045 13257 c-101 -34 -204 -102 -314 -210 -178 -172 -203 -334 -74
-473 58 -63 105 -86 181 -92 56 -3 78 0 130 21 170 69 361 247 416 386 50 129
-15 285 -147 353 -50 25 -139 32 -192 15z m166 -186 c57 -57 35 -120 -83 -234
-173 -167 -299 -223 -362 -161 -38 38 -35 88 7 150 43 63 212 205 290 244 77
38 110 39 148 1z"/>
<path d="M49730 13103 c-36 -43 -74 -89 -85 -102 -11 -13 -48 -57 -82 -97 -35
-40 -63 -76 -63 -81 0 -5 70 -77 156 -159 85 -82 157 -150 159 -152 11 -11 83
41 97 70 25 51 86 117 131 139 35 18 46 20 78 10 42 -13 95 -62 103 -97 4 -14
2 -43 -5 -66 -13 -51 -121 -162 -191 -197 l-47 -24 59 -48 c32 -27 63 -49 69
-49 21 0 88 48 140 100 134 134 177 270 124 391 -26 59 -103 136 -161 161 -56
25 -141 27 -194 5 -47 -20 -128 -95 -154 -142 -10 -19 -21 -35 -25 -35 -7 0
-37 28 -86 81 l-33 35 99 119 99 118 -58 49 c-32 26 -60 48 -62 48 -2 0 -33
-35 -68 -77z"/>
<path d="M49644 12415 c-38 -47 -73 -85 -78 -85 -5 0 -47 32 -94 72 -78 66
-86 70 -98 54 -7 -10 -26 -33 -43 -51 l-29 -33 89 -73 c86 -70 98 -83 81 -91
-4 -1 -36 -38 -72 -82 l-65 -79 50 -43 c27 -24 52 -40 55 -36 4 4 37 44 74 89
l68 82 88 -74 88 -75 39 46 c21 26 38 50 38 54 0 4 -36 38 -80 75 -44 37 -82
69 -84 71 -2 2 29 42 69 89 79 95 79 90 10 145 l-38 30 -68 -85z"/>
<path d="M12257 10409 c-27 -33 -45 -59 -40 -59 4 0 28 -19 53 -42 25 -23 75
-66 113 -96 69 -56 78 -71 52 -92 -8 -7 -15 -18 -14 -24 0 -6 48 -51 107 -99
59 -49 121 -100 139 -115 l32 -28 -27 -29 c-15 -17 -42 -47 -59 -69 l-31 -39
61 -51 c34 -28 65 -54 68 -59 5 -7 53 44 119 126 3 4 24 -8 46 -27 l41 -35 46
56 47 55 -41 33 -40 34 157 188 c87 103 166 196 176 206 23 22 21 26 -53 87
-55 46 -61 48 -91 39 -18 -6 -40 -12 -48 -14 -8 -2 -136 -37 -284 -79 -148
-42 -272 -74 -274 -71 -3 3 4 15 16 28 12 13 22 26 22 29 0 6 -215 189 -235
200 -5 3 -32 -21 -58 -53z m718 -231 c-22 -23 -42 -45 -45 -48 -3 -3 -35 -39
-70 -80 -35 -41 -67 -75 -71 -75 -4 0 -40 27 -80 59 -66 55 -70 60 -53 73 10
7 24 13 31 13 15 0 255 72 293 88 14 6 27 11 30 11 2 1 -14 -18 -35 -41z"/>
<path d="M47009 10373 c-73 -25 -152 -94 -185 -162 -34 -71 -22 -180 33 -279
68 -124 213 -278 314 -332 57 -31 72 -35 139 -35 87 0 131 19 199 85 133 130
108 301 -78 522 -142 168 -297 242 -422 201z m143 -184 c112 -79 271 -296 271
-370 0 -89 -81 -123 -166 -70 -63 39 -211 208 -259 297 -40 75 -29 136 30 166
39 19 74 12 124 -23z"/>
<path d="M13369 10076 c-70 -18 -137 -62 -220 -145 -160 -161 -239 -324 -217
-450 19 -111 159 -229 274 -231 196 -2 504 338 504 559 0 165 -183 308 -341
267z m139 -181 c17 -14 32 -36 34 -48 10 -56 -47 -163 -143 -271 -129 -144
-201 -183 -263 -143 -74 49 -53 136 70 287 147 180 235 232 302 175z"/>
<path d="M46540 9990 c-30 -27 -59 -50 -63 -50 -9 0 -2 -109 18 -275 2 -22 7
-67 10 -100 4 -33 8 -78 10 -100 2 -22 7 -69 10 -105 4 -36 8 -75 10 -87 3
-21 73 -113 85 -113 4 0 68 52 144 115 100 83 142 112 151 105 6 -5 32 -35 56
-65 24 -30 47 -55 51 -55 4 0 36 25 73 56 l66 56 -49 56 c-70 82 -69 79 -25
117 l38 33 -41 48 c-48 57 -54 60 -80 37 -53 -48 -47 -51 -126 44 -40 48 -75
90 -78 93 -3 3 -28 32 -55 65 -28 33 -62 73 -76 90 -15 16 -37 42 -50 57 l-24
28 -55 -50z m188 -385 l83 -100 -43 -39 c-24 -21 -60 -52 -80 -68 l-38 -30 -1
24 c0 12 -2 31 -4 41 -2 10 -6 48 -10 85 -6 67 -20 175 -29 222 -5 24 -5 24
17 -5 12 -16 59 -75 105 -130z"/>
<path d="M46028 9374 c-23 -20 -44 -37 -46 -39 -2 -2 31 -43 72 -91 l75 -89
-22 -18 c-12 -10 -42 -35 -67 -57 -25 -21 -55 -46 -67 -56 l-23 -19 44 -50 43
-49 35 29 c84 72 131 110 138 113 4 1 36 -33 71 -77 35 -44 69 -82 75 -85 6
-2 32 14 58 37 l47 42 -52 60 c-28 33 -61 72 -74 86 l-23 27 88 72 c98 80 95
71 38 138 -15 18 -30 32 -34 32 -3 0 -45 -32 -92 -72 -83 -70 -85 -71 -101
-51 -63 81 -126 153 -132 153 -4 0 -27 -16 -51 -36z"/>
<path d="M16517 7703 c3 -38 6 -72 7 -78 1 -5 28 -10 59 -12 106 -4 207 -69
207 -132 0 -27 -21 -67 -48 -88 -36 -30 -137 -7 -214 48 -35 25 -41 22 -82
-55 -29 -53 -30 -51 29 -83 50 -26 114 -83 131 -114 20 -39 5 -88 -39 -125
-27 -23 -37 -26 -80 -21 -26 4 -71 20 -100 36 -49 29 -131 103 -161 146 -8 11
-16 18 -19 15 -2 -3 -20 -33 -41 -68 l-37 -62 28 -34 c34 -41 111 -103 174
-139 99 -58 214 -80 298 -57 75 20 155 113 165 191 6 50 -23 123 -66 168 l-37
38 43 -7 c52 -8 127 9 164 37 15 11 40 40 55 65 67 108 13 235 -138 324 -79
46 -169 74 -239 74 l-64 0 5 -67z"/>
<path d="M43332 7754 c-59 -16 -125 -54 -165 -96 -87 -94 -86 -230 4 -410 140
-282 305 -395 480 -329 103 39 182 131 192 223 11 97 -38 239 -131 384 -117
182 -249 261 -380 228z m82 -168 c83 -35 248 -314 250 -424 1 -47 -3 -57 -27
-78 -44 -38 -102 -29 -152 23 -58 61 -150 213 -189 312 -49 125 12 211 118
167z"/>
<path d="M16001 7572 c-43 -62 -60 -100 -48 -110 20 -16 257 -152 265 -152 4
0 23 29 43 64 l37 64 -139 80 -139 81 -19 -27z"/>
<path d="M42784 7436 c-66 -21 -156 -73 -206 -121 -56 -53 -102 -121 -94 -141
5 -14 100 -64 123 -64 7 0 19 13 28 30 30 59 119 128 172 134 61 8 115 -54
105 -121 -5 -30 -62 -86 -128 -123 -30 -17 -54 -33 -54 -35 0 -2 16 -30 35
-63 l36 -59 85 43 c106 55 153 58 194 14 36 -38 44 -83 24 -126 -29 -62 -141
-126 -256 -146 -35 -6 -64 -13 -66 -14 -2 -1 14 -32 34 -68 23 -40 45 -66 55
-66 56 0 223 71 294 125 132 100 175 224 119 342 -48 99 -128 140 -229 114
-24 -6 -46 -11 -49 -11 -3 0 9 23 27 52 28 45 32 60 31 118 0 56 -5 73 -30
111 -52 79 -147 107 -250 75z"/>
<path d="M17123 7396 c-90 -42 -190 -159 -267 -313 -55 -107 -69 -160 -70
-248 0 -97 20 -142 90 -203 91 -81 218 -101 315 -51 110 56 262 273 308 438
24 86 21 182 -7 237 -66 130 -245 198 -369 140z m193 -168 c45 -41 37 -104
-31 -243 -47 -94 -132 -216 -175 -247 -38 -28 -71 -30 -108 -8 -44 27 -56 62
-42 119 18 70 101 235 149 294 97 120 148 141 207 85z"/>
<path d="M42227 6950 c-14 -11 -30 -20 -35 -20 -5 0 -14 -6 -20 -13 -8 -10 3
-37 43 -107 30 -52 55 -97 55 -100 0 -3 -43 -29 -95 -58 -52 -30 -95 -58 -95
-64 0 -12 49 -96 60 -103 5 -3 52 20 105 50 54 31 98 55 99 53 2 -2 27 -45 56
-95 29 -51 57 -93 62 -93 7 0 89 43 107 56 3 3 -27 60 -86 161 l-24 42 100 58
100 58 -31 55 c-17 30 -33 57 -34 59 -2 2 -22 -8 -44 -23 -22 -14 -43 -26 -46
-26 -4 0 -29 -14 -56 -30 -27 -17 -53 -28 -57 -26 -5 3 -32 46 -60 96 -29 49
-58 90 -65 90 -7 0 -25 -9 -39 -20z"/>
<path d="M20648 5784 c-2 -1 -16 -4 -33 -6 -16 -3 -49 -10 -73 -18 -33 -10
-41 -17 -36 -29 3 -9 15 -42 26 -73 11 -32 23 -58 26 -58 4 0 30 6 58 14 159
42 269 -38 209 -153 -32 -63 -130 -119 -509 -296 -23 -10 -35 -27 -52 -75
l-22 -61 22 -8 c11 -5 136 -50 276 -101 140 -51 260 -95 267 -97 6 -3 20 19
32 51 24 65 37 114 27 105 -4 -4 -30 2 -59 13 -29 11 -101 38 -160 59 -59 21
-113 41 -118 45 -6 3 58 36 143 73 223 98 290 147 337 246 33 71 27 167 -15
227 -55 80 -171 137 -289 142 -30 2 -56 2 -57 0z"/>
<path d="M39289 5720 c-94 -29 -138 -61 -181 -131 -59 -96 -29 -309 74 -513
102 -202 251 -272 419 -194 100 46 153 119 162 225 12 139 -71 385 -171 508
-85 104 -189 141 -303 105z m133 -177 c69 -66 172 -351 162 -447 -7 -64 -67
-104 -126 -84 -47 16 -101 104 -152 248 -66 183 -63 280 9 311 31 13 76 1 107
-28z"/>
<path d="M21244 5551 c-103 -33 -198 -161 -263 -357 -70 -207 -51 -370 52
-449 116 -87 269 -91 366 -9 108 93 208 325 216 504 7 142 -33 223 -135 278
-84 46 -162 57 -236 33z m132 -150 c29 -2 57 -42 62 -89 12 -125 -109 -427
-187 -466 -78 -40 -148 25 -136 127 12 93 88 299 138 370 24 35 73 66 95 62
10 -2 22 -4 28 -4z"/>
<path d="M20029 5457 l-26 -73 152 -55 153 -55 25 72 25 72 -146 53 c-80 30
-148 55 -151 57 -4 1 -18 -31 -32 -71z"/>
<path d="M38690 5505 c-109 -39 -194 -106 -245 -191 l-24 -40 66 -39 66 -39
24 30 c99 118 159 150 224 118 28 -14 59 -76 59 -117 0 -45 -33 -134 -126
-340 l-94 -207 22 -58 c11 -31 22 -58 23 -60 3 -4 559 198 568 207 4 4 -5 39
-19 79 l-26 71 -37 -14 c-108 -42 -314 -115 -317 -112 -1 1 28 64 66 139 91
182 112 246 112 333 0 108 -44 189 -127 233 -38 20 -167 25 -215 7z"/>
<path d="M38108 5129 l-56 -20 28 -77 c16 -42 33 -90 40 -106 6 -16 7 -33 3
-37 -4 -4 -48 -21 -98 -39 -49 -17 -94 -35 -99 -40 -5 -5 0 -33 13 -68 l22
-59 106 39 c58 22 109 36 113 31 4 -4 22 -51 40 -103 18 -52 34 -97 36 -99 6
-7 124 41 124 51 0 5 -7 25 -16 46 -32 76 -55 155 -47 162 4 4 50 22 101 40
51 18 95 36 97 40 6 10 -35 120 -45 120 -4 0 -50 -16 -101 -35 -52 -19 -97
-35 -102 -35 -9 0 -20 25 -57 129 -15 41 -31 76 -36 77 -5 1 -34 -7 -66 -17z"/>
<path d="M29934 4521 c-101 -29 -166 -78 -219 -166 -73 -122 -105 -291 -100
-525 2 -80 7 -158 10 -175 3 -16 8 -39 10 -50 28 -160 103 -289 202 -353 135
-87 374 -81 495 11 89 68 144 166 175 312 20 99 22 122 23 285 3 361 -94 573
-300 655 -65 25 -217 29 -296 6z m230 -239 c25 -22 62 -106 71 -162 4 -25 9
-54 12 -65 6 -34 6 -327 -1 -385 -25 -205 -112 -294 -234 -240 -85 38 -115
144 -117 413 -3 322 37 441 155 468 32 7 89 -8 114 -29z"/>
<path d="M34855 4505 c-98 -22 -162 -72 -196 -153 -40 -92 -30 -297 22 -467
53 -174 150 -265 286 -266 152 -1 254 74 289 213 31 119 1 348 -64 490 -70
153 -189 217 -337 183z m120 -165 c21 -17 62 -109 75 -166 22 -92 21 -91 34
-206 8 -62 -10 -148 -34 -173 -31 -31 -105 -28 -131 5 -32 41 -78 156 -69 172
1 2 -3 14 -8 28 -10 26 -22 119 -27 199 -5 105 37 167 108 158 21 -3 44 -11
52 -17z"/>
<path d="M25205 4491 c-16 -9 -82 -46 -145 -80 -63 -35 -118 -66 -122 -70 -4
-3 8 -34 28 -68 l34 -62 73 41 c39 22 80 47 90 56 21 19 21 24 -3 -100 -11
-57 -22 -121 -26 -143 -3 -22 -14 -83 -24 -135 -10 -52 -21 -115 -25 -140 -3
-25 -10 -61 -14 -81 -13 -57 -14 -56 130 -75 l47 -7 12 74 c6 41 15 90 20 109
5 19 11 57 15 84 3 27 8 52 9 55 2 3 7 29 10 56 4 28 9 59 11 70 3 11 7 34 10
50 3 17 17 95 31 175 14 80 27 155 29 166 3 19 -4 23 -65 33 -85 14 -88 14
-125 -8z"/>
<path d="M25725 4408 c-70 -26 -112 -66 -156 -152 -53 -103 -81 -232 -83 -381
-1 -120 1 -134 25 -185 55 -117 151 -171 296 -164 96 4 170 58 223 164 74 146
107 395 69 523 -28 92 -65 139 -142 178 -49 25 -184 35 -232 17z m163 -163
c17 -14 34 -40 38 -58 22 -101 -19 -350 -75 -450 -21 -37 -54 -57 -96 -57 -66
1 -94 56 -90 176 2 45 6 90 9 100 3 11 8 35 11 54 29 173 79 258 152 260 12 0
35 -11 51 -25z"/>
<path d="M34359 4406 c-2 -2 -26 -7 -54 -10 -56 -7 -64 -15 -259 -235 l-39
-45 54 -48 54 -48 40 43 c22 24 54 60 70 81 l31 38 2 -29 c1 -15 9 -68 17
-118 9 -49 18 -103 21 -120 2 -16 7 -37 9 -45 3 -8 7 -32 9 -52 3 -21 10 -63
15 -95 6 -32 13 -74 16 -93 3 -19 10 -49 14 -67 5 -17 6 -35 3 -39 -4 -4 9 -4
28 -1 126 22 153 27 157 31 3 2 0 28 -6 58 -6 29 -13 67 -16 83 -3 17 -14 82
-25 145 -11 63 -22 124 -24 135 -6 32 -19 109 -21 125 -2 13 -15 84 -29 157
-3 11 -7 43 -11 70 -10 71 -15 83 -34 83 -10 0 -20 -2 -22 -4z"/>
<path d="M24510 4089 c-7 -39 -10 -72 -8 -74 3 -4 22 -7 101 -20 17 -3 67 -12
111 -20 43 -8 84 -15 91 -15 10 0 42 137 33 145 -2 2 -19 6 -38 9 -19 3 -46 8
-60 11 -51 10 -195 35 -207 35 -6 0 -16 -31 -23 -71z"/>
<path d="M33649 4135 c-3 -2 -20 -6 -38 -7 -18 -1 -34 -5 -36 -8 -2 -3 5 -54
16 -114 11 -60 18 -110 17 -112 -2 -2 -19 -6 -38 -9 -41 -6 -136 -24 -166 -30
-20 -4 -21 -8 -12 -52 5 -27 11 -55 12 -63 3 -16 18 -17 81 -6 50 9 104 17
130 19 18 2 22 -10 39 -106 l20 -108 51 5 c71 7 84 14 79 39 -7 31 -23 125
-30 168 l-5 37 58 8 c32 4 60 8 63 9 3 0 27 4 54 9 l48 8 -7 56 c-4 31 -11 61
-16 66 -5 6 -45 3 -102 -7 -51 -9 -100 -17 -109 -17 -11 0 -19 25 -33 103 -11
56 -18 105 -17 110 2 8 -52 10 -59 2z"/>
</g>
</svg>
